<?xml version="1.0"?>
<svg xmlns="http://www.w3.org/2000/svg" id="outline" viewBox="0 0 512 512" width="512" height="512"><path d="M460.7417,310.9707A32.17634,32.17634,0,0,0,430.04248,288H416a64,64,0,0,0-128,0H273.95752a32.17665,32.17665,0,0,0-30.69922,22.96973l-33.79639,114.9082A35.97137,35.97137,0,0,0,243.97168,472H460.02832a35.97052,35.97052,0,0,0,34.50977-46.12109ZM304,288a48,48,0,0,1,96,0v60.68652l-8,8-8-8V288a32,32,0,0,0-64,0v60.68652l-8,8-8-8Zm64,0H336a16,16,0,0,1,32,0Zm92.02832,168H243.97168a19.97209,19.97209,0,0,1-19.16016-25.60742l33.79639-114.9082A16.08848,16.08848,0,0,1,273.95752,304H288v48a8.00076,8.00076,0,0,0,2.34326,5.65723l16,16a8.00182,8.00182,0,0,0,11.31348,0l16-16A8.00076,8.00076,0,0,0,336,352V304h32v48a8.00076,8.00076,0,0,0,2.34326,5.65723l16,16a8.00063,8.00063,0,0,0,11.31348,0l16-16A8.00076,8.00076,0,0,0,416,352V304h14.04248a16.08848,16.08848,0,0,1,15.34961,11.48438l33.79639,114.90917A19.97124,19.97124,0,0,1,460.02832,456Z"/><rect x="107.53391" y="357.99995" width="20.48785" height="16.0001" transform="translate(-265.05576 401.58172) rotate(-77.47195)"/><path d="M17.397,468.5166A8.00061,8.00061,0,0,0,24,472H192V456H105.9729l6.72534-30.26465-15.61914-3.4707L89.58252,456H35.69482L141.47247,184H150.027L116.63477,334.26465l15.61914,3.4707L166.41742,184H176V320h16V184h9.58258L225.0791,289.73535l15.61914-3.4707L217.973,184h8.55457l32.23858,82.89941,14.91211-5.79882L240.50244,175.791l31.08692-93.26075a7.99982,7.99982,0,0,0-1.18946-7.33007l-16.65771-22.21a32.47391,32.47391,0,0,0-51.3374-.80273L184,75.19434,165.59521,52.18848a32.47312,32.47312,0,0,0-51.3374.80175L97.6001,75.2002a7.99982,7.99982,0,0,0-1.18946,7.33007L127.49756,175.791,16.544,461.10059A7.99953,7.99953,0,0,0,17.397,468.5166ZM112.915,81.44629l14.14258-18.85645a16.47337,16.47337,0,0,1,26.04345-.40625l24.65186,30.81446a8.00106,8.00106,0,0,0,12.49414,0l24.65186-30.81446a16.47337,16.47337,0,0,1,26.04345.40625L255.085,81.44629,226.23389,168H141.76611Z"/><rect x="176" y="336" width="16" height="96"/></svg>
