<?xml version="1.0" encoding="UTF-8"?>
<!DOCTYPE svg PUBLIC "-//W3C//DTD SVG 1.1//EN" "http://www.w3.org/Graphics/SVG/1.1/DTD/svg11.dtd">
<svg version="1.1" xmlns="http://www.w3.org/2000/svg" xmlns:xlink="http://www.w3.org/1999/xlink" x="0" y="0" width="366" height="550" viewBox="0, 0, 366, 550">
  <g id="Layer_1">
    <path d="M275.927,77.554 C276.258,77.564 276.607,77.505 276.901,77.394 C277.201,77.527 277.535,77.59 277.866,77.618 C277.919,77.617 277.971,77.616 278.005,77.615 C279.404,77.587 280.532,76.479 280.572,75.082 C280.612,73.631 279.487,72.414 278.037,72.376 C277.686,72.364 277.357,72.425 277.062,72.534 C276.762,72.402 276.428,72.321 276.078,72.312 C274.647,72.271 273.43,73.397 273.39,74.847 C273.333,76.298 274.476,77.497 275.927,77.554 M263.5,77.15 C264.952,77.208 266.15,76.065 266.191,74.631 C266.151,76.082 267.292,77.28 268.744,77.319 C269.077,77.33 269.407,77.27 269.719,77.16 C270.019,77.293 270.334,77.374 270.684,77.384 C270.738,77.382 270.771,77.382 270.824,77.381 C272.203,77.352 273.35,76.245 273.39,74.847 C273.43,73.397 272.305,72.198 270.854,72.141 C270.504,72.131 270.173,72.19 269.878,72.3 C269.579,72.168 269.248,72.105 268.896,72.077 C267.463,72.038 266.247,73.163 266.208,74.613 C266.247,73.163 265.105,71.964 263.671,71.925 C262.22,71.868 261.004,73.01 260.965,74.461 C260.925,75.894 262.05,77.111 263.5,77.15 M244.143,112.485 L247.632,112.61 L248.004,102.139 L244.514,102.016 L244.143,112.485 z M251.124,112.733 L252.868,112.795 L253.239,102.326 L251.494,102.264 L251.124,112.733 z M287.764,114.039 L289.51,114.102 L289.885,103.633 L288.139,103.57 L287.764,114.039 z M293,114.227 L296.491,114.35 L296.862,103.881 L293.372,103.756 L293,114.227 z M280.785,113.79 L284.274,113.915 L284.649,103.446 L281.16,103.321 L280.785,113.79 z M268.57,113.355 L272.06,113.48 L272.435,103.011 L268.945,102.886 L268.57,113.355 z M263.334,113.17 L265.08,113.231 L265.454,102.762 L263.709,102.699 L263.334,113.17 z M256.358,112.92 L259.846,113.044 L260.218,102.575 L256.729,102.451 L256.358,112.92 z M275.55,113.604 L277.294,113.667 L277.669,103.197 L275.924,103.135 L275.55,113.604 z M244.024,89.653 L244.041,89.718 C244.273,90.621 244.847,90.89 245.302,91.329 C245.804,91.682 246.317,92.005 246.848,92.278 C247.907,92.839 249.003,93.292 250.116,93.689 C252.344,94.479 254.627,95.062 256.93,95.519 C261.539,96.431 266.218,96.896 270.902,97.043 C275.585,97.192 280.287,97.025 284.945,96.405 C287.272,96.092 289.589,95.654 291.862,95.005 C292.997,94.676 294.121,94.293 295.211,93.799 C295.759,93.559 296.29,93.267 296.813,92.946 C297.294,92.536 297.883,92.299 298.167,91.416 L298.188,91.353 L298.171,91.28 C297.966,90.37 297.406,90.071 296.961,89.608 C296.471,89.231 295.968,88.88 295.444,88.582 C294.403,87.968 293.317,87.462 292.214,87.009 C290.003,86.119 287.729,85.399 285.418,84.866 C280.793,83.785 276.065,83.26 271.338,83.083 C266.61,82.962 261.857,83.181 257.174,83.968 C254.832,84.35 252.517,84.93 250.255,85.68 C249.125,86.063 248.009,86.501 246.932,87.049 C246.391,87.315 245.867,87.635 245.355,87.983 C244.882,88.418 244.303,88.684 244.044,89.582 L244.024,89.653 z M240.987,89.544 C241.162,84.003 254.791,79.937 271.427,80.464 C288.062,80.991 301.406,85.912 301.23,91.454 C301.054,96.996 287.426,101.061 270.79,100.534 C254.155,100.005 240.811,95.086 240.987,89.544 M275.417,93.247 C275.766,93.258 276.098,93.216 276.41,93.104 C276.708,93.22 277.025,93.301 277.374,93.312 C277.427,93.327 277.461,93.326 277.514,93.325 C278.893,93.297 280.04,92.19 280.081,90.774 C280.12,89.341 278.978,88.126 277.544,88.085 C277.195,88.076 276.865,88.135 276.552,88.246 C276.252,88.112 275.936,88.032 275.587,88.022 C274.137,87.983 272.937,89.108 272.879,90.558 C272.937,89.108 271.795,87.909 270.361,87.852 C270.013,87.841 269.681,87.9 269.371,88.012 C269.071,87.879 268.753,87.797 268.404,87.789 C266.955,87.749 265.739,88.892 265.699,90.324 C265.755,88.891 264.612,87.675 263.161,87.618 C261.728,87.579 260.513,88.722 260.473,90.154 C260.417,91.605 261.559,92.821 263.01,92.86 C263.043,92.86 263.096,92.859 263.149,92.858 C264.528,92.83 265.658,91.722 265.699,90.324 C265.659,91.775 266.785,92.992 268.235,93.032 C268.583,93.041 268.915,92.982 269.226,92.871 C269.526,93.004 269.843,93.085 270.193,93.094 C270.227,93.094 270.28,93.092 270.331,93.092 C271.71,93.063 272.839,91.956 272.879,90.558 C272.841,92.009 273.985,93.207 275.417,93.247 M270.902,97.043 C268.56,96.932 266.22,96.788 263.895,96.497 C261.567,96.24 259.265,95.786 256.983,95.281 C254.704,94.756 252.469,94.044 250.315,93.174 C249.24,92.733 248.187,92.239 247.2,91.655 C246.7,91.37 246.237,91.044 245.793,90.703 C245.445,90.387 245.021,89.976 244.94,89.684 C245.053,89.407 245.519,89.045 245.9,88.771 C246.373,88.483 246.862,88.214 247.385,87.985 C248.419,87.518 249.509,87.145 250.616,86.827 C252.832,86.195 255.109,85.765 257.403,85.457 C261.992,84.847 266.644,84.681 271.284,84.827 C275.922,84.973 280.554,85.431 285.097,86.329 C287.368,86.779 289.615,87.353 291.786,88.123 C292.87,88.508 293.934,88.95 294.939,89.48 C295.448,89.74 295.918,90.039 296.375,90.356 C296.739,90.653 297.183,91.045 297.281,91.328 C297.18,91.618 296.733,92.002 296.365,92.297 C295.902,92.61 295.419,92.908 294.903,93.162 C293.881,93.684 292.798,94.111 291.698,94.484 C289.492,95.217 287.216,95.787 284.908,96.166 C282.597,96.527 280.271,96.835 277.929,96.941 C275.589,97.086 273.245,97.081 270.902,97.043 M265.133,164.555 L266.875,164.626 L266.931,162.947 L265.183,162.907 L265.133,164.555 z M263.433,162.88 L261.684,162.86 L261.648,164.417 L263.391,164.483 L263.433,162.88 z M259.934,162.845 L258.185,162.841 L258.162,164.299 L259.906,164.357 L259.934,162.845 z M256.435,162.861 L254.685,162.889 L254.675,164.169 L256.418,164.231 L256.435,162.861 z M252.934,162.924 L251.184,162.968 L251.186,164.069 L252.931,164.115 L252.934,162.924 z M249.435,163.018 L247.686,163.079 L247.696,164.003 L249.441,164.031 L249.435,163.018 z M245.936,163.164 L244.188,163.273 L244.205,163.936 L245.952,163.972 L245.936,163.164 z M242.458,163.912 L242.441,163.397 L240.696,163.532 L240.71,163.902 L242.458,163.912 z M238.963,163.899 L238.953,163.692 L237.212,163.887 L237.212,163.898 L238.963,163.899 z M228.904,158.341 C228.98,158.309 229.05,158.299 229.128,158.263 C231.211,157.304 237.244,156.768 245.216,156.601 C267.44,156.136 304.738,158.543 313.576,162.666 C315.278,163.46 316.705,163.982 317.917,164.267 C318.627,163.456 319.164,162.497 319.657,161.547 C320.307,160.285 320.843,158.968 321.29,157.623 C322.175,154.933 322.77,152.142 323.07,149.341 C323.692,143.774 323.093,138.082 322.309,132.469 C320.621,121.226 317.875,110.111 314.917,99.066 L305.852,65.886 C304.316,60.364 302.784,54.843 301.125,49.36 C300.307,46.521 299.43,43.703 298.481,40.906 C298.353,41.018 298.157,41.035 297.879,40.934 C280.567,34.591 259.688,34.94 247.002,39.077 C246.265,41.044 245.573,43.027 244.958,45.037 C243.23,50.458 241.779,55.967 240.357,61.485 C238.966,67.019 237.643,72.544 236.323,78.127 C234.99,83.691 233.572,89.198 232.357,94.763 C231.112,100.317 229.906,105.878 228.913,111.473 C227.848,117.055 227,122.671 226.341,128.298 C225.731,133.925 225.315,139.59 225.614,145.219 C225.761,148.027 226.065,150.844 226.826,153.549 C227.305,155.216 227.979,156.853 228.904,158.341 M311.971,168.004 L310.316,167.441 L310.272,167.631 L311.971,168.004 z M308.625,167.005 L306.917,166.636 L306.836,167.135 L308.559,167.359 L308.625,167.005 z M305.203,166.304 L303.48,165.997 L303.378,166.786 L305.111,166.947 L305.203,166.304 z M301.755,165.723 L300.025,165.48 L299.915,166.477 L301.648,166.631 L301.755,165.723 z M298.297,165.251 L296.566,165.034 L296.452,166.209 L298.186,166.337 L298.297,165.251 z M294.831,164.826 L293.092,164.628 L292.976,165.98 L294.715,166.09 L294.831,164.826 z M291.361,164.438 L289.623,164.27 L289.507,165.77 L291.244,165.88 L291.361,164.438 z M287.882,164.116 L286.139,163.969 L286.028,165.561 L287.768,165.663 L287.882,164.116 z M284.394,163.828 L282.65,163.699 L282.545,165.372 L284.286,165.466 L284.394,163.828 z M280.905,163.586 L279.16,163.478 L279.066,165.182 L280.805,165.274 L280.905,163.586 z M277.414,163.376 L275.668,163.28 L275.583,165.014 L277.324,165.095 L277.414,163.376 z M273.922,163.195 L272.175,163.125 L272.1,164.848 L273.841,164.933 L273.922,163.195 z M270.427,163.06 L268.679,163.001 L268.618,164.694 L270.359,164.768 L270.427,163.06 z M266.344,197.566 C265.417,195.929 264.166,194.505 262.797,193.304 C260.038,190.907 256.956,189.275 254.303,187.196 C251.668,185.112 249.175,182.669 246.717,180.269 C241.804,175.429 237.113,170.337 232.826,164.924 C231.587,163.35 230.407,161.732 229.27,160.085 C228.925,159.585 228.606,159.068 228.274,158.56 C228.347,158.539 228.421,158.508 228.496,158.483 C227.408,157.091 226.547,155.498 225.924,153.85 C224.875,151.125 224.282,148.255 223.866,145.382 C223.136,139.615 223.199,133.805 223.578,128.052 C224.369,116.532 226.44,105.187 228.974,93.995 C230.286,88.409 231.662,82.828 233.203,77.326 C234.659,71.818 236.142,66.259 237.828,60.78 C239.476,55.286 241.298,49.833 243.435,44.491 C244.51,41.824 245.683,39.192 246.989,36.625 C247.127,36.352 247.277,36.082 247.419,35.81 C251.576,25.968 261.625,13.527 275.535,15.522 C283.36,16.643 291.691,26.715 295.892,33.855 C295.791,33.599 295.7,33.339 295.596,33.083 C301.149,43.196 304.902,54.185 308.496,65.091 C312.047,76.052 315.23,87.052 318.279,98.17 C321.189,109.312 323.81,120.589 324.978,132.146 C325.542,137.909 325.794,143.788 324.725,149.607 C324.154,152.477 323.291,155.275 322.137,157.95 C321.095,160.242 319.855,162.583 317.971,164.281 C318.125,164.316 318.282,164.358 318.426,164.384 C317.982,164.884 317.517,165.365 317.05,165.846 C315.556,167.382 313.975,168.834 312.333,170.21 C306.7,174.86 300.48,178.743 294.14,182.393 C290.976,184.248 287.775,185.985 284.597,187.969 C281.459,190.004 278.468,192.544 276.358,195.793 C275.199,197.499 274.325,199.348 273.623,201.255 L270.603,201.275 C269.692,201.287 268.782,201.298 267.872,201.307 C267.516,200.013 267.024,198.744 266.344,197.566 M267.464,276.209 C263.417,276.186 259.368,276.09 255.318,275.933 C253.919,282.083 252.48,288.224 250.974,294.355 L267.279,294.822 L280.363,295.171 C279.245,288.813 278.212,282.45 277.223,276.082 C273.971,276.161 270.718,276.211 267.464,276.209 M328.315,302.304 L329.797,301.374 L329.793,301.37 L328.293,302.264 L328.315,302.304 z M325.173,303.851 L326.757,303.1 L326.72,303.023 L325.124,303.736 L325.173,303.851 z M321.98,305.276 L323.581,304.573 L323.515,304.422 L321.901,305.088 L321.98,305.276 z M318.763,306.641 L320.374,305.964 L320.281,305.739 L318.657,306.378 L318.763,306.641 z M287.667,308.927 L288.301,310.606 L289.1,310.26 L288.516,308.655 L287.667,308.927 z M286.776,305.495 L287.17,307.218 L288.058,306.995 L287.693,305.308 L286.776,305.495 z M286.776,300.157 L286.493,298.435 L285.48,298.606 L285.788,300.328 L286.776,300.157 z M286.101,302.049 L286.428,303.772 L287.371,303.595 L287.068,301.878 L286.101,302.049 z M289.871,311.751 L289.159,312.212 C289.497,312.724 289.895,313.211 290.379,313.621 L290.916,312.994 C290.512,312.643 290.167,312.214 289.871,311.751 M292.28,313.774 L292.032,314.539 C292.635,314.731 293.259,314.802 293.868,314.803 L293.875,314.022 C293.325,314.014 292.783,313.942 292.28,313.774 M297.246,313.592 L295.554,313.9 L295.667,314.65 L297.403,314.312 L297.246,313.592 z M300.592,312.755 L298.934,313.214 L299.108,313.906 L300.794,313.417 L300.592,312.755 z M303.911,311.702 L302.253,312.241 L302.46,312.878 L304.118,312.308 L303.911,311.702 z M284.314,291.713 L284.596,293.437 L285.676,293.264 L285.409,291.538 L284.314,291.713 z M283.764,288.261 L284.038,289.987 L285.139,289.815 L284.875,288.089 L283.764,288.261 z M283.225,284.81 L283.495,286.535 L284.612,286.364 L284.351,284.638 L283.225,284.81 z M283.579,279.438 L283.327,277.706 L282.171,277.877 L282.432,279.609 L283.579,279.438 z M282.694,281.342 L282.959,283.075 L284.091,282.904 L283.834,281.17 L282.694,281.342 z M281.151,270.951 L281.403,272.682 L282.58,272.512 L282.335,270.782 L281.151,270.951 z M280.652,267.49 L280.9,269.221 L282.092,269.051 L281.852,267.321 L280.652,267.49 z M280.161,264.03 L280.405,265.76 L281.613,265.591 L281.376,263.861 L280.161,264.03 z M279.677,260.57 L279.917,262.3 L281.141,262.132 L280.907,260.403 L279.677,260.57 z M280.221,255.215 L279.996,253.486 L278.736,253.652 L278.967,255.382 L280.221,255.215 z M279.203,257.112 L279.439,258.842 L280.676,258.674 L280.447,256.944 L279.203,257.112 z M277.833,246.731 L278.053,248.462 L279.336,248.299 L279.123,246.569 L277.833,246.731 z M277.404,243.267 L277.613,245 L278.912,244.839 L278.698,243.11 L277.404,243.267 z M276.998,239.799 L277.199,241.534 L278.486,241.381 L278.278,239.651 L276.998,239.799 z M277.683,234.453 L277.497,232.723 L276.244,232.853 L276.423,234.589 L277.683,234.453 z M276.61,236.327 L276.801,238.064 L278.075,237.919 L277.876,236.187 L276.61,236.327 z M278.066,206.957 L278.572,205.332 L277.493,204.956 L276.958,206.649 L278.066,206.957 z M277.34,210.296 L277.66,208.614 L276.529,208.367 L276.192,210.103 L277.34,210.296 z M276.917,213.708 L277.097,211.995 L275.934,211.85 L275.744,213.603 L276.917,213.708 z M276.791,215.433 L275.605,215.358 L275.511,217.113 L276.705,217.163 L276.791,215.433 z M275.624,225.89 L275.758,227.632 L276.992,227.527 L276.849,225.798 L275.624,225.89 z M276.62,220.635 L276.65,218.898 L275.45,218.867 L275.412,220.618 L276.62,220.635 z M275.427,222.388 L275.508,224.143 L276.73,224.07 L276.643,222.347 L275.427,222.388 z M280.835,198.676 L279.814,200.148 L280.761,200.746 L281.724,199.345 L280.835,198.676 z M283.207,196.003 L281.967,197.292 L282.797,198.023 L283.965,196.778 L283.207,196.003 z M285.932,193.701 L284.533,194.807 L285.222,195.615 L286.557,194.533 L285.932,193.701 z M288.904,191.741 L287.392,192.682 L287.958,193.529 L289.415,192.597 L288.904,191.741 z M293.898,189.874 L295.391,188.959 L294.919,188.182 L293.418,189.078 L293.898,189.874 z M290.908,191.692 L292.403,190.786 L291.914,189.968 L290.409,190.856 L290.908,191.692 z M295.054,207.254 C296.403,205.988 296.469,203.862 295.203,202.514 C293.935,201.167 291.811,201.101 290.462,202.366 C290.287,202.531 290.278,202.807 290.443,202.982 C290.605,203.158 290.882,203.166 291.059,203.002 C292.058,202.065 293.628,202.116 294.566,203.111 C295.502,204.11 295.455,205.681 294.458,206.618 C293.898,207.143 293.145,207.372 292.383,207.264 C292.152,207.214 291.924,207.392 291.888,207.63 C291.852,207.868 292.015,208.089 292.255,208.126 C292.448,208.155 292.641,208.167 292.833,208.163 C293.659,208.145 294.443,207.829 295.054,207.254 M292.057,230.483 C291.474,230.979 290.706,231.177 289.956,231.021 C289.71,230.974 289.489,231.126 289.44,231.362 C289.392,231.597 289.546,231.827 289.783,231.877 C290.031,231.928 290.283,231.95 290.531,231.945 C291.293,231.929 292.028,231.652 292.625,231.145 C293.305,230.567 293.722,229.755 293.793,228.862 C293.867,227.969 293.586,227.102 293.007,226.418 C292.427,225.736 291.618,225.32 290.723,225.249 C289.843,225.18 288.963,225.454 288.279,226.037 C288.095,226.192 288.073,226.467 288.23,226.652 C288.385,226.834 288.659,226.857 288.845,226.7 C289.349,226.271 289.985,226.07 290.654,226.118 C291.312,226.171 291.912,226.479 292.342,226.985 C293.227,228.027 293.1,229.595 292.057,230.483 M308.843,310.017 L309.022,310.508 L310.649,309.886 L310.481,309.434 L308.843,310.017 z M305.693,182.316 L307.136,181.324 L306.723,180.721 L305.273,181.691 L305.693,182.316 z M302.784,184.263 L304.242,183.295 L303.816,182.649 L302.349,183.594 L302.784,184.263 z M299.843,186.168 L301.316,185.219 L300.875,184.53 L299.396,185.455 L299.843,186.168 z M296.88,188.035 L298.365,187.106 L297.909,186.372 L296.417,187.281 L296.88,188.035 z M302.941,249.187 C302.917,249.954 302.548,250.655 301.931,251.11 C301.737,251.252 301.695,251.526 301.838,251.721 C301.927,251.838 302.063,251.9 302.199,251.897 C302.287,251.896 302.374,251.867 302.45,251.812 C303.283,251.198 303.78,250.25 303.814,249.216 C303.873,247.368 302.418,245.818 300.57,245.757 C298.689,245.705 297.169,247.156 297.109,249.002 C297.102,249.244 297.291,249.444 297.532,249.454 C297.829,249.454 297.974,249.27 297.983,249.031 C298.028,247.666 299.139,246.543 300.541,246.631 C301.203,246.651 301.817,246.93 302.271,247.413 C302.724,247.895 302.962,248.527 302.941,249.187 M305.124,272.402 C305.098,273.169 304.731,273.871 304.113,274.326 C303.919,274.467 303.877,274.741 304.022,274.937 C304.109,275.054 304.247,275.116 304.382,275.113 C304.468,275.111 304.557,275.083 304.632,275.027 C305.465,274.414 305.962,273.466 305.998,272.432 C306.057,270.584 304.601,269.032 302.751,268.972 C300.922,268.941 299.352,270.371 299.292,272.218 C299.285,272.46 299.473,272.66 299.713,272.67 C299.722,272.67 299.731,272.669 299.738,272.669 C299.968,272.664 300.157,272.479 300.166,272.248 C300.208,270.881 301.382,269.759 302.723,269.845 C304.093,269.888 305.167,271.035 305.124,272.402 M307.203,310.59 L305.559,311.153 L305.759,311.72 L307.392,311.119 L307.203,310.59 z M307.328,296.484 C307.415,296.482 307.502,296.455 307.579,296.398 C308.412,295.785 308.909,294.838 308.943,293.803 C308.97,292.907 308.649,292.054 308.035,291.401 C307.422,290.749 306.591,290.373 305.699,290.345 C303.826,290.285 302.298,291.742 302.238,293.589 C302.23,293.832 302.419,294.032 302.66,294.042 C302.668,294.042 302.676,294.042 302.683,294.04 C302.914,294.035 303.102,293.85 303.111,293.617 C303.155,292.251 304.308,291.149 305.671,291.218 C306.332,291.239 306.946,291.516 307.4,292 C307.853,292.482 308.091,293.112 308.069,293.775 C308.045,294.542 307.676,295.242 307.058,295.697 C306.866,295.839 306.824,296.113 306.967,296.308 C307.055,296.425 307.191,296.487 307.328,296.484 M315.543,175.036 L315.2,174.604 L313.817,175.664 L314.178,176.131 L315.543,175.036 z M315.391,307.629 L315.524,307.967 L317.148,307.307 L317.029,307.006 L315.391,307.629 z M311.403,178.263 L312.798,177.208 L312.418,176.703 L311.01,177.728 L311.403,178.263 z M309.992,179.299 L309.592,178.741 L308.163,179.738 L308.568,180.319 L309.992,179.299 z M312.119,308.842 L312.275,309.256 L313.9,308.616 L313.756,308.24 L312.119,308.842 z M317.912,172.421 L316.565,173.525 L316.89,173.92 L318.219,172.781 L317.912,172.421 z M259.069,200.902 L259.93,200.177 L258.724,198.86 L257.927,199.643 L259.069,200.902 z M259.996,225.353 L259.63,227.054 L260.854,227.315 L261.213,225.61 L259.996,225.353 z M260.724,221.946 L260.361,223.648 L261.571,223.903 L261.926,222.199 L260.724,221.946 z M261.444,218.537 L261.086,220.243 L262.28,220.492 L262.632,218.783 L261.444,218.537 z M261.799,216.833 L262.979,217.074 L263.322,215.365 L262.148,215.131 L261.799,216.833 z M263.36,206.47 L262.772,204.753 L261.708,205.189 L262.244,206.775 L263.36,206.47 z M262.681,211.762 L262.475,213.442 L263.647,213.637 L263.859,211.849 L262.681,211.762 z M263.895,210.045 L263.735,208.247 L262.582,208.415 L262.723,210.081 L263.895,210.045 z M254.678,195.414 L253.243,194.391 L252.641,195.25 L254.037,196.273 L254.678,195.414 z M256.692,198.459 L257.434,197.633 L256.082,196.49 L255.391,197.341 L256.692,198.459 z M254.928,201.38 C254.106,201.733 253.469,202.387 253.139,203.22 C252.808,204.053 252.821,204.964 253.175,205.786 C253.529,206.61 254.183,207.245 255.015,207.576 C255.44,207.744 255.886,207.824 256.328,207.815 C256.887,207.803 257.441,207.65 257.941,207.358 C258.15,207.236 258.22,206.97 258.099,206.761 C257.977,206.554 257.709,206.479 257.503,206.603 C256.84,206.986 256.05,207.046 255.336,206.765 C254.722,206.52 254.239,206.05 253.977,205.443 C253.715,204.833 253.705,204.158 253.951,203.542 C254.195,202.927 254.665,202.443 255.273,202.181 C255.879,201.918 256.553,201.908 257.17,202.155 C257.398,202.244 257.648,202.133 257.739,201.912 C257.828,201.688 257.718,201.433 257.495,201.343 C256.663,201.011 255.749,201.023 254.928,201.38 M255.553,245.794 L255.182,247.497 L256.426,247.771 L256.804,246.069 L255.553,245.794 z M256.293,242.387 L255.925,244.09 L257.182,244.367 L257.559,242.665 L256.293,242.387 z M257.032,238.98 L256.662,240.685 L257.936,240.963 L258.308,239.259 L257.032,238.98 z M259.405,234.145 L259.768,232.438 L258.522,232.17 L258.15,233.874 L259.405,234.145 z M257.779,235.576 L257.405,237.279 L258.674,237.554 L259.041,235.849 L257.779,235.576 z M250.256,269.646 L249.869,271.351 L251.001,271.612 L251.398,269.907 L250.256,269.646 z M251.029,266.237 L250.644,267.941 L251.792,268.204 L252.185,266.5 L251.029,266.237 z M251.795,262.828 L251.413,264.532 L252.576,264.797 L252.966,263.094 L251.795,262.828 z M254.13,257.985 L254.515,256.283 L253.312,256.013 L252.934,257.717 L254.13,257.985 z M252.556,259.421 L252.176,261.124 L253.356,261.39 L253.744,259.688 L252.556,259.421 z M245.496,290.083 L245.085,291.779 L246.045,292.019 L246.479,290.325 L245.496,290.083 z M246.302,286.687 L245.901,288.385 L246.908,288.631 L247.333,286.937 L246.302,286.687 z M247.098,283.288 L246.702,284.987 L247.756,285.242 L248.174,283.546 L247.098,283.288 z M249.398,278.433 L249.803,276.728 L248.694,276.468 L248.297,278.175 L249.398,278.433 z M247.9,279.882 L247.499,281.589 L248.583,281.847 L248.992,280.14 L247.9,279.882 z M240.958,306.908 C240.857,307.173 240.754,307.437 240.639,307.686 C240.581,307.81 240.521,307.931 240.458,308.036 C240.374,308.162 240.375,308.175 240.29,308.229 L240.682,308.868 C240.853,308.777 241.037,308.553 241.102,308.431 C241.19,308.288 241.26,308.149 241.328,308.011 C241.459,307.734 241.572,307.459 241.68,307.183 L240.958,306.908 z M242.017,303.6 L241.512,305.27 L242.271,305.515 L242.803,303.835 L242.017,303.6 z M244.255,298.78 L244.714,297.091 L243.827,296.86 L243.393,298.55 L244.255,298.78 z M242.949,300.238 L242.493,301.922 L243.305,302.153 L243.788,300.467 L242.949,300.238 z M238.795,309.238 L238.781,308.513 L237.082,308.447 L237.016,309.145 L238.795,309.238 z M235.268,308.919 L235.368,308.25 L233.655,307.976 L233.537,308.618 L235.268,308.919 z M231.823,308.26 L231.947,307.663 L230.247,307.314 L230.12,307.867 L231.823,308.26 z M346.341,190.654 C346.712,194.309 346.536,197.985 346.346,201.643 C346.153,205.303 345.859,208.959 345.514,212.61 C344.825,219.911 343.947,227.195 342.996,234.469 C341.156,249.023 339.042,263.546 336.665,278.017 C336.067,281.571 335.468,285.131 334.845,288.68 C333.602,280.11 332.269,271.552 330.854,263.009 C326.66,238.149 322.147,213.305 315.895,188.873 C318.822,201.134 321.096,213.535 323.309,225.939 C325.559,238.338 327.611,250.77 329.534,263.221 C331.084,273.291 332.575,283.372 333.95,293.467 C333.57,295.521 333.208,297.585 332.795,299.622 C332.608,300.502 332.414,301.394 332.192,302.221 L332.022,302.797 C332.02,302.813 332.014,302.821 332.009,302.836 C331.827,302.948 331.51,303.13 331.274,303.252 C329.721,304.059 328.046,304.818 326.389,305.56 C323.059,307.042 319.687,308.463 316.3,309.845 C312.914,311.228 309.51,312.573 306.094,313.861 C302.689,315.128 299.217,316.423 295.84,317.341 C294.217,317.77 292.621,317.906 291.396,317.461 C290.18,317.05 289.257,315.977 288.531,314.517 C287.806,313.069 287.285,311.361 286.749,309.621 C286.313,308.011 285.944,306.197 285.594,304.418 C285.188,302.354 284.81,300.28 284.421,298.211 C285.458,298.169 286.497,298.133 287.533,298.074 C290.925,297.907 294.313,297.627 297.692,297.232 C299.377,297.034 301.072,296.801 302.752,296.519 L304.011,296.311 C304.495,296.239 305.011,295.929 305.256,295.511 C305.739,294.664 305.713,293.761 305.608,292.926 C305.556,293.757 305.344,294.642 304.839,295.193 C304.582,295.463 304.286,295.57 303.927,295.57 L302.658,295.56 C300.97,295.554 299.292,295.582 297.6,295.529 C295.915,295.526 294.23,295.507 292.542,295.457 L287.489,295.36 L285.997,295.32 L285.944,294.988 L284.886,295.161 L284.91,295.292 L283.863,295.263 C282.686,288.855 281.586,282.42 280.535,275.975 C280.984,275.961 281.433,275.949 281.881,275.932 L281.914,276.145 L283.076,275.974 L283.065,275.894 C283.547,275.876 284.03,275.868 284.512,275.848 C290.194,275.576 295.871,275.186 301.545,274.544 L301.514,274.542 C302.117,274.534 302.499,274.133 302.752,273.786 C303.015,273.42 303.199,273.025 303.34,272.619 C303.11,272.979 302.837,273.315 302.528,273.581 C302.227,273.856 301.841,274.016 301.57,273.948 L301.538,273.948 C295.853,273.437 290.171,273.151 284.493,272.957 C283.002,272.912 281.512,272.893 280.023,272.863 C279.392,268.939 278.773,265.014 278.168,261.09 C277.778,258.523 277.408,255.955 277.035,253.386 C280.353,253.355 283.672,253.297 286.994,253.143 C289.602,253.044 292.211,252.875 294.822,252.693 L296.78,252.527 L297.759,252.444 C297.862,252.445 298.316,252.381 298.446,252.274 C298.648,252.174 298.794,252.061 298.939,251.946 C300.023,251.016 300.746,249.935 301.475,248.831 C300.493,249.681 299.464,250.57 298.412,251.141 C298.285,251.203 298.15,251.261 298.048,251.279 C297.882,251.307 298.006,251.289 297.785,251.277 L296.809,251.181 L294.859,250.988 C292.258,250.769 289.658,250.563 287.055,250.429 C284.559,250.277 282.061,250.178 279.563,250.103 L279.553,250.029 L279.107,250.086 C278.252,250.061 277.398,250.053 276.543,250.034 C276.041,246.465 275.562,242.895 275.122,239.322 C274.817,236.786 274.544,234.252 274.299,231.72 C275.697,231.652 277.094,231.583 278.491,231.471 C282.088,231.182 285.682,230.754 289.261,229.955 C285.653,229.309 282.058,228.981 278.466,228.757 C276.977,228.664 275.488,228.598 274,228.539 C273.705,224.881 273.526,221.226 273.555,217.574 C273.62,213.967 273.825,210.349 274.537,206.852 C274.683,206.129 274.856,205.412 275.038,204.696 C276.224,204.671 277.41,204.629 278.592,204.549 C281.247,204.349 283.882,204.069 286.519,203.595 C286.859,203.591 287.31,203.683 287.749,203.819 C288.253,203.969 288.776,204.152 289.288,204.368 C289.796,204.59 290.319,204.811 290.828,205.064 L291.585,205.455 C291.709,205.523 291.833,205.594 291.949,205.673 C292.025,205.737 292.28,205.88 292.063,205.883 C292.098,205.892 292.13,205.914 292.184,205.892 C292.226,205.84 292.2,205.79 292.19,205.754 C292.163,205.676 292.125,205.611 292.085,205.547 C292.006,205.417 291.918,205.296 291.829,205.175 C291.651,204.934 291.457,204.711 291.252,204.497 C290.847,204.066 290.424,203.648 289.959,203.273 C289.5,202.894 289.022,202.524 288.49,202.197 C287.943,201.886 287.395,201.574 286.6,201.414 L286.416,201.411 C283.772,201.282 281.122,201.256 278.488,201.224 L276.122,201.239 C276.683,199.753 277.352,198.318 278.212,196.995 C280.052,194.02 282.718,191.633 285.68,189.615 C288.685,187.639 291.908,185.811 295.024,183.866 C301.265,179.968 307.41,175.821 312.939,170.912 C314.651,169.369 316.293,167.743 317.827,166.019 C318.275,165.516 318.713,165.007 319.138,164.484 C320.069,164.578 320.834,164.484 321.445,164.192 C323.585,163.166 324.454,159.638 325.766,154.297 C326.228,152.417 326.753,150.283 327.409,147.974 C331.321,134.193 318.605,88.472 308.698,55.281 C303.003,36.2 294.195,22.558 282.521,14.737 C277.984,11.695 273.183,10.717 268.252,11.825 C260.628,13.536 252.721,20.433 246.555,30.75 C237.154,46.475 223.293,104.122 220.888,127.401 C219.215,143.57 220.745,155.03 224.978,158.06 C225.771,158.626 226.636,158.817 227.579,158.698 C227.9,159.238 228.233,159.771 228.568,160.3 C229.683,162.068 230.864,163.793 232.091,165.482 C236.205,171.096 240.728,176.394 245.501,181.463 C247.92,183.981 250.342,186.447 253.087,188.734 C255.85,190.985 258.905,192.713 261.332,194.937 C263.293,196.675 264.636,198.863 265.369,201.301 C264.512,201.296 263.653,201.297 262.807,201.263 C262.491,201.236 262.169,201.236 261.848,201.224 C261.734,201.221 261.436,201.206 261.162,201.215 C260.897,201.23 260.695,201.296 260.468,201.343 C259.653,201.595 259.044,201.989 258.475,202.414 C257.341,203.252 256.387,204.232 255.542,205.303 C256.76,204.707 257.977,204.139 259.169,203.697 C259.726,203.506 260.289,203.353 260.758,203.309 L260.985,203.673 L261.46,203.411 C261.793,203.5 262.127,203.6 262.465,203.674 C263.626,203.944 264.788,204.131 265.948,204.279 C266.276,207.181 266.032,210.197 265.578,213.169 C264.585,218.235 263.535,223.323 262.465,228.415 C260.632,228.446 258.799,228.493 256.968,228.553 C255.181,228.6 253.389,228.703 251.612,228.735 C250.708,228.8 249.843,228.765 248.945,228.785 C248.161,228.789 247.245,228.563 246.972,227.636 C246.897,228.092 247.097,228.609 247.457,228.98 C247.82,229.35 248.301,229.581 248.769,229.737 C249.65,230.008 250.56,230.257 251.452,230.442 C253.253,230.817 255.054,231.088 256.859,231.276 C258.499,231.454 260.139,231.58 261.779,231.68 C260.47,237.84 259.125,244 257.769,250.146 C257.14,250.169 256.511,250.173 255.882,250.202 L256.045,249.473 L254.81,249.2 L254.578,250.264 C252.375,250.365 250.171,250.5 247.967,250.654 L244.049,251 C243.002,251.254 242.474,249.672 242.529,248.417 C242.352,249.05 242.244,249.72 242.368,250.433 C242.44,250.784 242.586,251.159 242.89,251.46 C243.199,251.759 243.621,251.907 244.022,251.967 L247.92,252.368 C249.952,252.539 251.983,252.692 254.016,252.819 L253.688,254.31 L254.9,254.58 L255.277,252.9 C255.426,252.908 255.575,252.92 255.724,252.929 C256.197,252.957 256.669,252.964 257.142,252.989 C257.086,253.244 257.031,253.499 256.974,253.752 C255.537,260.176 254.078,266.595 252.58,273.004 C251.867,273.026 251.154,273.035 250.441,273.062 L249.626,273.09 L249.479,273.056 L249.47,273.096 L241.941,273.365 C240.522,273.441 239.11,273.46 237.727,273.452 C237.083,273.422 236.435,273.262 235.885,272.898 C235.606,272.724 235.352,272.496 235.154,272.221 C235.059,272.082 234.968,271.934 234.913,271.773 C234.866,271.63 234.784,271.4 234.959,271.324 C234.751,271.361 234.774,271.642 234.789,271.801 C234.806,271.988 234.863,272.167 234.931,272.342 C235.073,272.691 235.29,273.013 235.559,273.288 C236.098,273.846 236.836,274.189 237.587,274.377 C239.028,274.686 240.454,274.855 241.873,275.027 C244.72,275.336 247.562,275.573 250.407,275.727 C250.912,275.758 251.417,275.764 251.921,275.791 C250.473,281.932 248.989,288.062 247.435,294.169 C247.427,294.198 247.42,294.226 247.414,294.254 L247.065,294.244 C246.538,294.224 246.01,294.209 245.482,294.191 L245.608,293.712 L244.671,293.474 L244.503,294.159 C241.988,294.078 239.473,293.998 236.962,293.872 C235.283,293.798 233.593,293.721 231.928,293.562 C231.542,293.521 231.019,293.512 230.741,293.444 C230.431,293.367 230.145,293.13 229.922,292.814 C229.468,292.176 229.231,291.333 229.111,290.501 C229.062,291.347 229.1,292.223 229.464,293.075 C229.654,293.491 229.978,293.911 230.464,294.14 C230.986,294.355 231.321,294.384 231.759,294.515 C233.421,294.966 235.097,295.25 236.773,295.576 C240.082,296.142 243.402,296.591 246.73,296.944 C246.115,299.367 245.494,301.787 244.834,304.19 C243.913,307.479 242.99,310.885 241.77,313.865 C241.671,314.096 241.563,314.316 241.462,314.504 C240.848,314.483 240.065,314.366 239.315,314.229 C237.685,313.924 236.021,313.516 234.367,313.088 C231.052,312.221 227.743,311.244 224.446,310.231 C221.148,309.216 217.86,308.158 214.586,307.061 L209.697,305.38 L207.291,304.501 C207.069,304.416 206.844,304.328 206.63,304.241 L206.605,304.084 C206.228,300.789 206.08,297.267 205.877,293.838 L205.321,283.47 L201.688,200.392 C201.595,214.258 201.761,228.12 201.837,241.984 C202.038,255.846 202.278,269.706 202.632,283.572 C202.843,290.536 202.937,297.377 203.609,304.472 C203.642,304.711 203.669,304.937 203.726,305.219 C203.763,305.379 203.766,305.479 203.9,305.827 C203.981,305.961 203.89,305.927 204.23,306.343 C204.64,306.72 204.557,306.592 204.642,306.664 L204.89,306.793 C205.383,307.021 205.772,307.171 206.195,307.338 L208.663,308.26 L213.59,309.997 C216.879,311.128 220.18,312.218 223.498,313.268 C226.818,314.315 230.149,315.326 233.533,316.24 C235.229,316.692 236.929,317.126 238.703,317.471 C239.607,317.636 240.469,317.805 241.576,317.834 C241.887,317.823 242.149,317.843 242.652,317.721 C242.665,317.74 243.171,317.548 243.302,317.431 C243.472,317.315 243.614,317.189 243.689,317.107 C243.881,316.909 243.98,316.764 244.078,316.624 C244.442,316.076 244.623,315.655 244.828,315.209 C246.255,311.779 247.147,308.476 248.128,305.106 C248.859,302.504 249.537,299.896 250.21,297.288 C255.857,297.816 261.516,298.125 267.18,298.311 C271.764,298.414 276.351,298.435 280.939,298.326 C281.346,300.586 281.745,302.845 282.175,305.106 C282.551,306.925 282.915,308.712 283.456,310.641 C284.016,312.398 284.564,314.222 285.492,316.059 C285.958,316.972 286.539,317.894 287.33,318.725 C288.118,319.552 289.151,320.256 290.276,320.637 C292.559,321.413 294.788,321.057 296.678,320.563 C300.38,319.524 303.786,318.212 307.25,316.898 C310.694,315.573 314.109,314.194 317.509,312.777 C320.911,311.359 324.294,309.906 327.66,308.38 C329.346,307.608 331.014,306.842 332.712,305.945 C333.176,305.673 333.496,305.557 334.173,305.021 C334.215,305.006 334.428,304.776 334.55,304.578 C334.714,304.315 334.698,304.295 334.744,304.199 C334.819,304.021 334.875,303.865 334.909,303.748 C334.998,303.477 335.058,303.243 335.124,303.002 C335.145,302.918 335.158,302.84 335.178,302.756 C336.689,314.541 338.013,326.345 339.032,338.174 L339.791,347.582 L340.309,356.998 C340.445,360.136 340.451,363.275 340.529,366.414 C340.508,369.548 340.315,372.673 340.216,375.804 C339.331,388.319 336.803,400.682 333.641,412.841 C330.433,425.001 326.398,436.943 321.843,448.678 C317.32,460.427 312.323,472.013 306.561,483.225 C318.459,461.004 328.086,437.514 334.938,413.191 C338.322,401.024 340.823,388.562 341.802,375.919 C341.916,372.753 342.125,369.582 342.158,366.417 C342.093,363.256 342.099,360.089 341.976,356.932 L341.496,347.467 L340.769,338.026 C339.541,324.655 337.972,311.326 336.16,298.031 C337.4,291.498 338.364,284.97 339.306,278.424 C341.367,263.867 343.194,249.283 344.685,234.66 C345.38,227.343 346.001,220.018 346.431,212.68 C346.792,205.353 347.291,197.956 346.341,190.654 M223.181,347.221 C222.046,354.853 220.463,362.413 218.653,369.97 C215.195,385.128 210.831,400.112 208.508,416.212 C208.29,418.263 207.951,420.239 207.884,422.377 C207.763,424.48 207.594,426.559 207.759,428.811 C207.834,429.901 207.816,431.05 207.98,432.089 L208.46,435.209 C208.637,436.243 208.754,437.298 208.982,438.313 L209.712,441.339 C211.72,449.384 214.741,456.964 218.325,464.172 C221.918,471.375 226.056,478.23 230.655,484.733 C233.009,487.95 235.343,491.163 237.912,494.203 C240.478,497.229 243.038,500.301 246.107,502.854 C244.982,501.228 244.053,499.495 243.103,497.777 C242.161,496.053 241.208,494.345 240.328,492.592 C238.513,489.124 236.745,485.644 235.085,482.121 C231.717,475.107 228.573,468.029 225.866,460.861 C223.176,453.696 220.844,446.449 219.411,439.18 L218.875,436.46 C218.7,435.555 218.64,434.651 218.515,433.748 L218.179,431.042 C218.062,430.138 218.137,429.311 218.1,428.445 C217.988,426.775 218.147,424.939 218.274,423.127 C218.332,421.339 218.688,419.44 218.891,417.593 C221.022,402.609 224.714,387.179 226.73,371.434 C227.782,363.567 228.45,355.564 228.289,347.535 C228.052,339.548 227.252,331.38 224.265,323.975 C224.978,331.877 224.341,339.587 223.181,347.221 M306.198,494.714 C304.897,497.405 303.45,500.007 301.967,502.577 C300.406,505.101 298.806,507.597 297,509.933 C293.49,514.672 289.488,519.031 284.941,522.644 C280.387,526.234 275.215,529.002 269.674,530.32 C264.157,531.657 258.324,531.731 252.816,530.25 C247.294,528.856 242.064,526.24 237.383,522.832 C232.647,519.484 228.443,515.37 224.626,510.924 C220.822,506.461 217.47,501.585 214.573,496.441 C211.625,491.317 209.271,485.842 207.668,480.09 C208.499,486.023 210.568,491.745 213.049,497.222 C215.639,502.661 218.763,507.876 222.511,512.643 C226.207,517.452 230.542,521.799 235.432,525.501 C240.323,529.186 245.932,532.053 251.964,533.634 C258.009,535.186 264.471,535.103 270.497,533.513 C276.519,531.879 282.071,528.782 286.666,524.741 C291.311,520.741 295.156,515.969 298.402,510.897 C301.585,505.781 304.287,500.382 306.198,494.714 M208.132,300.171 L208.649,300.521 L208.656,300.51 L208.132,300.171 z M210.205,301.333 L211.809,302.037 L211.845,301.945 L210.228,301.281 L210.205,301.333 z M213.432,302.689 L215.069,303.304 L215.13,303.13 L213.482,302.556 L213.432,302.689 z M211.32,98.649 C211.923,92.599 212.518,86.646 213.557,80.788 C214.643,74.942 216.136,69.208 218.209,63.69 C220.227,58.15 222.85,52.844 225.864,47.718 C228.899,42.6 232.359,37.683 235.687,32.601 C231.259,36.746 227.153,41.251 223.589,46.236 C220.01,51.208 217.113,56.707 214.938,62.475 C212.827,68.266 211.418,74.31 210.858,80.413 C210.301,86.514 210.469,92.641 211.32,98.649 M229.516,171.381 L228.372,170.066 L227.983,170.393 L229.098,171.738 L229.516,171.381 z M226.882,169.038 L227.242,168.741 L226.127,167.403 L225.797,167.669 L226.882,169.038 z M224.732,166.285 L225.032,166.051 L223.956,164.682 L223.685,164.886 L224.732,166.285 z M222.663,163.469 L222.903,163.296 L221.876,161.887 L221.667,162.032 L222.663,163.469 z M220.705,160.571 L220.882,160.455 L219.93,158.999 L219.786,159.087 L220.705,160.571 z M218.918,157.569 L219.028,157.507 L218.199,155.981 L218.123,156.019 L218.918,157.569 z M217.425,154.418 L217.465,154.402 L216.883,152.761 L217.425,154.418 z M216.788,303.677 L216.715,303.892 L218.37,304.459 L218.452,304.201 L216.788,303.677 z M220.122,304.707 L220.03,305.004 L221.702,305.531 L221.803,305.191 L220.122,304.707 z M223.486,305.658 L223.377,306.04 L225.055,306.529 L225.171,306.104 L223.486,305.658 z M226.86,306.53 L226.74,306.998 L228.426,307.445 L228.55,306.934 L226.86,306.53 z M230.086,290.033 C230.046,290.271 230.205,290.496 230.442,290.537 C230.684,290.59 230.907,290.419 230.947,290.182 C231.261,288.361 230.035,286.622 228.213,286.307 C226.393,285.988 224.652,287.218 224.337,289.04 C224.162,290.062 224.459,291.087 225.152,291.857 C225.241,291.956 225.363,292.005 225.486,292.002 C225.586,292 225.688,291.963 225.768,291.89 C225.947,291.728 225.962,291.453 225.802,291.274 C225.287,290.704 225.067,289.944 225.197,289.188 C225.431,287.84 226.729,286.933 228.064,287.166 C229.411,287.401 230.321,288.686 230.086,290.033 M232.391,268.848 C232.626,267.499 233.923,266.601 235.258,266.828 C235.913,266.94 236.481,267.301 236.866,267.842 C237.246,268.384 237.394,269.043 237.282,269.694 C237.241,269.933 237.399,270.158 237.636,270.199 C237.883,270.245 238.102,270.079 238.141,269.844 C238.293,268.961 238.094,268.07 237.577,267.339 C237.061,266.607 236.291,266.12 235.409,265.968 C233.571,265.647 231.849,266.877 231.533,268.7 C231.355,269.721 231.652,270.749 232.344,271.518 C232.434,271.617 232.556,271.666 232.678,271.664 C232.78,271.661 232.88,271.626 232.96,271.552 C233.14,271.391 233.155,271.114 232.995,270.935 C232.481,270.364 232.262,269.604 232.391,268.848 M245.96,189.516 L246.592,188.834 L245.312,187.653 L244.691,188.31 L245.96,189.516 z M244.099,247.396 C244.058,247.633 244.217,247.859 244.455,247.9 C244.701,247.937 244.917,247.781 244.958,247.545 C245.112,246.663 244.914,245.774 244.396,245.042 C243.879,244.311 243.111,243.821 242.227,243.669 C241.344,243.518 240.457,243.716 239.722,244.234 C238.991,244.749 238.503,245.519 238.352,246.402 C238.174,247.421 238.469,248.448 239.165,249.22 C239.253,249.319 239.375,249.367 239.498,249.364 C239.599,249.362 239.701,249.326 239.781,249.254 C239.96,249.092 239.974,248.817 239.814,248.637 C239.298,248.064 239.081,247.304 239.211,246.551 C239.323,245.897 239.683,245.327 240.226,244.946 C240.766,244.565 241.419,244.416 242.078,244.528 C243.427,244.763 244.333,246.048 244.099,247.396 M251.221,194.173 L251.859,193.37 L250.513,192.278 L249.866,193.043 L251.221,194.173 z M248.544,191.885 L249.19,191.152 L247.884,190.002 L247.245,190.708 L248.544,191.885 z M247.575,224.774 C246.682,224.855 245.875,225.279 245.3,225.966 C244.728,226.656 244.456,227.526 244.539,228.418 C244.633,229.45 245.186,230.364 246.054,230.93 C246.13,230.979 246.215,231.001 246.301,230.999 C246.441,230.996 246.576,230.927 246.659,230.8 C246.789,230.599 246.732,230.328 246.531,230.196 C245.886,229.778 245.477,229.101 245.406,228.339 C245.283,226.977 246.291,225.767 247.654,225.643 C248.307,225.587 248.957,225.78 249.467,226.207 C249.975,226.631 250.289,227.229 250.35,227.889 C250.372,228.129 250.587,228.333 250.824,228.283 C251.064,228.262 251.24,228.049 251.218,227.809 C251.137,226.917 250.713,226.11 250.024,225.537 C249.336,224.963 248.473,224.674 247.575,224.774 M243.432,187.094 L244.042,186.459 L242.784,185.254 L242.184,185.867 L243.432,187.094 z M240.948,184.631 L241.534,184.039 L240.288,182.809 L239.713,183.381 L240.948,184.631 z M238.489,182.121 L239.051,181.572 L237.825,180.325 L237.276,180.855 L238.489,182.121 z M236.074,179.581 L236.609,179.071 L235.403,177.81 L234.88,178.298 L236.074,179.581 z M233.698,177.008 L234.207,176.539 L233.021,175.26 L232.527,175.708 L233.698,177.008 z M231.369,174.397 L231.843,173.974 L230.673,172.682 L230.227,173.073 L231.369,174.397 z M212.467,163.455 C217.149,174.387 225.061,183.7 232.841,192.441 C234.767,194.649 236.694,196.846 238.423,199.059 C240.08,201.229 241.759,203.735 241.333,205.233 C241.164,206.379 240.838,207.828 240.53,209.222 C240.226,210.617 239.843,212.042 239.503,213.451 C238.781,216.277 238.04,219.11 237.259,221.937 L228.244,256.009 L223.872,273.104 C222.417,278.809 221.136,284.555 219.421,290.194 C222.227,284.962 224.186,279.362 226.328,273.867 C228.372,268.331 230.321,262.764 232.164,257.166 C234.064,251.582 235.746,245.934 237.492,240.303 C239.161,234.648 240.771,228.979 242.319,223.278 C243.066,220.422 243.775,217.551 244.469,214.666 C244.8,213.21 245.162,211.788 245.465,210.304 C245.763,208.818 246.107,207.401 246.263,205.618 C246.285,205.396 246.321,205.218 246.326,204.961 L246.283,204.095 C246.209,203.555 246.107,203.012 245.947,202.556 C245.65,201.601 245.237,200.818 244.812,200.074 C243.951,198.606 242.977,197.374 241.99,196.189 C240.016,193.824 237.906,191.734 235.808,189.651 C227.428,181.373 219.054,173.304 212.467,163.455 M329.484,159.549 L328.593,161.042 L328.693,161.105 L329.553,159.587 L329.484,159.549 z M326.553,163.862 L326.708,163.983 L327.739,162.569 L327.611,162.478 L326.553,163.862 z M323.064,167.737 L321.819,168.955 L322.066,169.209 L323.291,167.958 L323.064,167.737 z M320.542,170.138 L319.239,171.294 L319.527,171.618 L320.81,170.428 L320.542,170.138 z M325.44,165.194 L324.273,166.485 L324.477,166.672 L325.621,165.347 L325.44,165.194 z M330.261,157.997 L330.297,158.012 L330.901,156.376 L330.261,157.997 z M363.242,348.471 C355.21,381.409 333.302,466.313 298.373,521.107 C263.443,575.901 214.495,521.941 204.797,497.176 C195.101,472.412 182.468,430.086 184.459,367.259 C186.452,304.433 201.877,203.601 199.549,166.841 C197.221,130.082 202.704,67.367 210.126,53.627 C217.55,39.886 250.125,4.234 271.123,3.153 C292.121,2.072 320.572,41.406 330.378,62.68 C340.185,83.954 341.572,150.382 345.702,185.451 C352.348,241.909 371.275,315.535 363.242,348.471 M273.414,249.971 C272.958,246.546 272.521,243.117 272.122,239.679 C271.816,237.073 271.558,234.45 271.335,231.819 C270.119,231.848 268.902,231.886 267.684,231.878 C266.726,231.876 265.769,231.823 264.811,231.795 C264.657,232.552 264.503,233.309 264.348,234.07 L260.99,250.052 C264.473,249.97 267.955,249.927 271.435,249.932 C272.094,249.94 272.754,249.96 273.414,249.971 M271.07,228.454 C270.841,224.821 270.743,221.17 270.865,217.508 C271.014,213.786 271.305,210.044 272.137,206.353 C272.262,205.799 272.417,205.248 272.561,204.693 C271.892,204.687 271.224,204.696 270.552,204.672 C269.852,204.638 269.152,204.596 268.451,204.541 C268.791,207.586 268.589,210.611 268.21,213.561 C267.417,218.583 266.479,223.492 265.497,228.399 C266.234,228.396 266.969,228.381 267.708,228.387 C268.827,228.392 269.949,228.428 271.07,228.454 M276.707,272.794 C276.135,269.051 275.575,265.305 275.023,261.557 C274.63,258.842 274.257,256.123 273.883,253.404 C273.039,253.407 272.194,253.42 271.349,253.42 C267.679,253.373 264.011,253.275 260.343,253.129 L260.07,254.43 C258.739,260.597 257.388,266.758 256.001,272.914 C259.82,272.825 263.64,272.764 267.461,272.739 C270.542,272.731 273.625,272.751 276.707,272.794 M97.212,79.145 C97.561,79.137 97.893,79.06 98.186,78.931 C98.486,79.047 98.818,79.111 99.169,79.104 C100.617,79.073 101.763,77.879 101.732,76.431 C101.702,74.981 100.507,73.837 99.059,73.866 C98.709,73.874 98.38,73.951 98.084,74.079 C97.786,73.964 97.452,73.9 97.103,73.908 C95.654,73.937 94.51,75.131 94.54,76.58 C94.571,78.029 95.765,79.174 97.212,79.145 M90.02,79.295 C90.371,79.287 90.701,79.21 90.994,79.082 C91.294,79.198 91.626,79.261 91.977,79.254 C93.424,79.224 94.571,78.029 94.54,76.58 C94.51,75.131 93.316,73.986 91.866,74.017 C91.517,74.024 91.186,74.101 90.893,74.229 C90.593,74.113 90.261,74.05 89.911,74.057 C88.462,74.088 87.317,75.282 87.348,76.731 C87.377,78.178 88.571,79.326 90.02,79.295 M104.405,78.994 C105.854,78.964 106.999,77.768 106.969,76.32 C106.938,74.872 105.744,73.727 104.297,73.757 C102.847,73.787 101.702,74.981 101.732,76.431 C101.763,77.879 102.956,79.024 104.405,78.994 M70.758,105.358 L71.017,115.831 L74.509,115.745 L74.248,105.271 L70.758,105.358 z M95.194,104.75 L95.455,115.224 L98.946,115.137 L98.685,104.663 L95.194,104.75 z M119.632,104.143 L119.891,114.615 L123.382,114.53 L123.124,104.056 L119.632,104.143 z M102.176,104.577 L102.437,115.05 L104.182,115.006 L103.922,104.534 L102.176,104.577 z M107.414,104.447 L107.673,114.921 L111.165,114.834 L110.905,104.36 L107.414,104.447 z M114.396,104.273 L114.655,114.746 L116.401,114.703 L116.14,104.23 L114.396,104.273 z M89.958,104.88 L90.218,115.353 L91.963,115.31 L91.704,104.837 L89.958,104.88 z M77.739,105.184 L77.999,115.657 L79.746,115.614 L79.485,105.141 L77.739,105.184 z M82.974,105.054 L83.237,115.527 L86.728,115.44 L86.465,104.967 L82.974,105.054 z M69.567,92.816 L69.587,92.879 C69.861,93.765 70.448,94.009 70.925,94.423 C71.444,94.751 71.972,95.049 72.517,95.294 C73.603,95.8 74.722,96.195 75.854,96.536 C78.119,97.211 80.431,97.672 82.755,98.012 C87.406,98.68 92.105,98.899 96.791,98.801 C101.475,98.703 106.161,98.289 110.777,97.427 C113.085,96.995 115.375,96.436 117.612,95.67 C118.729,95.285 119.83,94.843 120.893,94.295 C121.428,94.028 121.944,93.709 122.451,93.361 C122.911,92.928 123.487,92.666 123.729,91.765 L123.746,91.701 L123.726,91.629 C123.477,90.729 122.902,90.455 122.434,90.015 C121.925,89.663 121.405,89.337 120.867,89.066 C119.794,88.506 118.684,88.056 117.559,87.661 C115.305,86.886 112.997,86.281 110.659,85.875 C105.984,85.038 101.233,84.766 96.504,84.836 C91.776,84.964 87.042,85.437 82.407,86.467 C80.089,86.975 77.808,87.671 75.588,88.538 C74.479,88.978 73.389,89.473 72.34,90.074 C71.814,90.368 71.306,90.714 70.813,91.085 C70.363,91.543 69.799,91.836 69.584,92.744 L69.567,92.816 z M66.524,92.884 C66.408,87.341 79.805,82.565 96.444,82.216 C113.084,81.869 126.668,86.081 126.784,91.624 C126.901,97.168 113.503,101.943 96.864,102.292 C80.224,102.639 66.64,98.428 66.524,92.884 M104.735,94.705 C106.183,94.674 107.328,93.48 107.298,92.032 C107.268,90.583 106.073,89.438 104.625,89.468 C103.176,89.498 102.03,90.692 102.061,92.141 C102.03,90.692 100.835,89.547 99.388,89.577 C99.039,89.585 98.707,89.662 98.414,89.79 C98.115,89.674 97.781,89.61 97.432,89.618 C95.983,89.649 94.838,90.842 94.868,92.292 C94.838,90.842 93.644,89.698 92.195,89.728 C91.845,89.735 91.515,89.812 91.222,89.94 C90.922,89.824 90.589,89.761 90.24,89.769 C88.791,89.799 87.645,90.993 87.676,92.442 C87.706,93.89 88.9,95.036 90.35,95.005 C90.699,94.998 91.029,94.922 91.323,94.793 C91.623,94.91 91.956,94.972 92.305,94.964 C93.753,94.935 94.898,93.74 94.868,92.292 C94.898,93.74 96.092,94.885 97.541,94.856 C97.89,94.847 98.221,94.771 98.516,94.643 C98.814,94.759 99.147,94.822 99.497,94.814 C100.945,94.785 102.09,93.59 102.061,92.141 C102.09,93.59 103.285,94.734 104.735,94.705 M103.802,98.329 C101.474,98.596 99.133,98.715 96.791,98.801 C94.447,98.813 92.102,98.792 89.764,98.623 C87.425,98.49 85.102,98.157 82.795,97.771 C80.491,97.369 78.222,96.773 76.023,96.017 C74.926,95.632 73.849,95.193 72.832,94.661 C72.318,94.401 71.84,94.099 71.379,93.78 C71.015,93.481 70.571,93.092 70.475,92.801 C70.575,92.519 71.024,92.131 71.391,91.839 C71.85,91.527 72.325,91.232 72.836,90.978 C73.846,90.459 74.916,90.029 76.003,89.655 C78.185,88.909 80.436,88.359 82.712,87.933 C87.263,87.085 91.9,86.678 96.54,86.58 C101.182,86.485 105.831,86.701 110.414,87.36 C112.704,87.694 114.977,88.148 117.185,88.804 C118.288,89.134 119.374,89.519 120.404,89.997 C120.925,90.23 121.41,90.505 121.88,90.798 C122.258,91.075 122.719,91.444 122.831,91.721 C122.745,92.012 122.317,92.419 121.966,92.73 C121.519,93.067 121.051,93.388 120.549,93.669 C119.556,94.241 118.498,94.725 117.418,95.154 C115.253,96 113.011,96.688 110.728,97.188 C108.44,97.67 106.133,98.098 103.802,98.329 M91.377,166.717 L91.31,164.981 L89.564,165.059 L89.635,166.779 L91.377,166.717 z M87.893,166.847 L87.817,165.142 L86.071,165.231 L86.152,166.921 L87.893,166.847 z M84.41,166.999 L84.324,165.325 L82.58,165.436 L82.669,167.075 L84.41,166.999 z M80.925,167.152 L80.832,165.558 L79.088,165.686 L79.185,167.234 L80.925,167.152 z M77.445,167.324 L77.345,165.821 L75.606,165.97 L75.708,167.414 L77.445,167.324 z M73.975,167.496 L73.872,166.141 L72.132,166.321 L72.234,167.587 L73.975,167.496 z M70.496,167.686 L70.394,166.51 L68.661,166.709 L68.761,167.796 L70.496,167.686 z M67.03,167.918 L66.931,166.92 L65.197,167.144 L65.295,168.053 L67.03,167.918 z M63.563,168.189 L63.47,167.4 L61.745,167.688 L61.829,168.332 L63.563,168.189 z M60.102,168.501 L60.027,168.001 L58.315,168.351 L58.378,168.706 L60.102,168.501 z M56.662,168.959 L56.619,168.769 L54.958,169.314 L56.662,168.959 z M53.412,163.96 C65.479,158.485 130.056,156.75 137.902,160.468 C137.979,160.504 138.048,160.515 138.125,160.548 C139.066,159.07 139.757,157.44 140.255,155.778 C141.044,153.082 141.377,150.268 141.555,147.462 C141.917,141.837 141.562,136.168 141.01,130.535 C140.414,124.9 139.626,119.275 138.622,113.682 C137.689,108.077 136.542,102.504 135.357,96.936 C134.203,91.358 132.844,85.836 131.571,80.258 C130.311,74.661 129.047,69.122 127.716,63.574 C126.354,58.041 124.962,52.516 123.293,47.078 C122.7,45.06 122.029,43.07 121.313,41.095 C108.672,36.821 87.8,36.247 70.419,42.403 C70.141,42.502 69.945,42.483 69.818,42.369 C68.838,45.155 67.931,47.963 67.082,50.795 C65.367,56.259 63.773,61.763 62.178,67.268 L52.755,100.349 C49.679,111.362 46.814,122.446 45.003,133.67 C44.16,139.274 43.5,144.959 44.061,150.533 C44.331,153.337 44.895,156.135 45.752,158.833 C46.184,160.183 46.706,161.506 47.343,162.775 C47.826,163.731 48.351,164.694 49.056,165.514 C50.27,165.243 51.701,164.735 53.412,163.96 M129.758,166.003 L128.018,165.79 L128.005,165.997 L129.757,166.015 L129.758,166.003 z M126.279,165.611 L124.533,165.456 L124.511,165.972 L126.258,165.981 L126.279,165.611 z M122.789,165.315 L121.042,165.186 L121.019,165.994 L122.764,165.977 L122.789,165.315 z M119.293,165.084 L117.544,165.003 L117.527,166.016 L119.274,166.006 L119.293,165.084 z M115.795,164.933 L114.045,164.871 L114.038,166.062 L115.782,166.035 L115.795,164.933 z M112.296,164.818 L110.547,164.77 L110.548,166.14 L112.292,166.097 L112.296,164.818 z M108.796,164.731 L107.047,164.717 L107.06,166.229 L108.803,166.19 L108.796,164.731 z M105.297,164.712 L103.548,164.714 L103.574,166.318 L105.317,166.269 L105.297,164.712 z M101.799,164.722 L100.05,164.744 L100.087,166.422 L101.832,166.371 L101.799,164.722 z M98.345,166.472 L98.301,164.778 L96.554,164.819 L96.602,166.527 L98.345,166.472 z M94.861,166.589 L94.805,164.864 L93.057,164.916 L93.119,166.654 L94.861,166.589 z M92.946,202.977 C92.265,201.063 91.41,199.205 90.269,197.486 C88.194,194.214 85.232,191.641 82.117,189.574 C78.96,187.556 75.777,185.785 72.632,183.895 C66.333,180.176 60.155,176.226 54.572,171.516 C52.944,170.12 51.376,168.65 49.897,167.096 C49.439,166.613 48.981,166.129 48.544,165.626 C48.689,165.6 48.847,165.56 48.999,165.527 C47.134,163.808 45.919,161.456 44.902,159.15 C43.776,156.464 42.942,153.656 42.403,150.781 C41.396,144.952 41.711,139.074 42.338,133.319 C43.631,121.776 46.374,110.526 49.404,99.416 C52.572,88.332 55.873,77.367 59.543,66.445 C63.254,55.578 67.125,44.631 72.788,34.578 C72.683,34.833 72.586,35.09 72.482,35.347 C76.761,28.252 85.199,18.27 93.037,17.234 C106.967,15.39 116.882,27.939 120.932,37.823 C121.072,38.097 121.218,38.369 121.353,38.645 C122.63,41.225 123.775,43.869 124.822,46.547 C126.901,51.912 128.665,57.384 130.254,62.897 C131.88,68.393 133.304,73.968 134.7,79.49 C136.181,85.008 137.497,90.605 138.749,96.204 C141.162,107.423 143.111,118.79 143.778,130.318 C144.095,136.075 144.094,141.885 143.302,147.645 C142.856,150.512 142.232,153.375 141.152,156.088 C140.511,157.73 139.636,159.315 138.532,160.693 C138.604,160.719 138.679,160.752 138.751,160.773 C138.415,161.278 138.089,161.791 137.739,162.286 C136.585,163.922 135.387,165.528 134.133,167.089 C129.787,172.454 125.042,177.495 120.075,182.282 C117.592,184.656 115.074,187.071 112.416,189.128 C109.742,191.176 106.642,192.776 103.856,195.144 C102.475,196.329 101.209,197.739 100.264,199.365 C99.571,200.536 99.065,201.8 98.696,203.09 C97.786,203.071 96.876,203.052 95.965,203.029 L92.946,202.977 z M98.295,277.994 C95.041,277.96 91.79,277.875 88.539,277.761 C87.481,284.118 86.38,290.469 85.194,296.814 L98.281,296.607 L114.589,296.316 C113.15,290.169 111.776,284.012 110.444,277.849 C106.393,277.962 102.344,278.013 98.295,277.994 M123.745,309.243 C123.851,309.52 123.959,309.797 124.089,310.075 C124.153,310.214 124.222,310.354 124.309,310.499 C124.374,310.62 124.554,310.846 124.724,310.939 L125.124,310.304 C125.039,310.25 125.042,310.236 124.958,310.109 C124.896,310.004 124.837,309.881 124.781,309.757 C124.668,309.507 124.567,309.242 124.47,308.975 L123.745,309.243 z M122.658,305.883 L123.172,307.57 L123.934,307.333 L123.447,305.657 L122.658,305.883 z M122.125,300.592 L121.709,298.897 L120.819,299.121 L121.259,300.813 L122.125,300.592 z M121.71,302.506 L122.174,304.195 L122.99,303.973 L122.551,302.285 L121.71,302.506 z M128.329,310.557 L126.63,310.604 L126.608,311.329 L128.386,311.256 L128.329,310.557 z M131.761,310.122 L130.045,310.377 L130.137,311.048 L131.872,310.765 L131.761,310.122 z M135.176,309.497 L133.471,309.827 L133.589,310.426 L135.295,310.051 L135.176,309.497 z M119.127,292.335 L119.542,294.033 L120.504,293.803 L120.115,292.102 L119.127,292.335 z M118.31,288.938 L118.717,290.637 L119.727,290.4 L119.344,288.698 L118.31,288.938 z M117.505,285.537 L117.906,287.237 L118.963,286.995 L118.584,285.291 L117.505,285.537 z M117.44,280.165 L117.063,278.455 L115.952,278.701 L116.337,280.412 L117.44,280.165 z M116.725,282.123 L117.115,283.834 L118.202,283.588 L117.819,281.877 L116.725,282.123 z M114.429,271.865 L114.808,273.574 L115.943,273.325 L115.574,271.615 L114.429,271.865 z M113.678,268.45 L114.054,270.157 L115.205,269.906 L114.837,268.198 L113.678,268.45 z M112.934,265.034 L113.307,266.742 L114.473,266.49 L114.108,264.782 L112.934,265.034 z M113.024,259.658 L112.666,257.951 L111.458,258.207 L111.826,259.914 L113.024,259.658 z M112.193,261.62 L112.563,263.327 L113.747,263.074 L113.384,261.366 L112.193,261.62 z M109.28,247.97 L109.641,249.675 L110.886,249.415 L110.535,247.707 L109.28,247.97 z M108.562,244.557 L108.921,246.263 L110.182,246.001 L109.831,244.294 L108.562,244.557 z M107.85,241.143 L108.205,242.85 L109.481,242.586 L109.129,240.88 L107.85,241.143 z M108.065,235.76 L107.712,234.052 L106.463,234.307 L106.809,236.018 L108.065,235.76 z M107.155,237.726 L107.502,239.435 L108.774,239.173 L108.419,237.466 L107.155,237.726 z M105.092,227.465 L105.433,229.173 L106.66,228.925 L106.312,227.219 L105.092,227.465 z M104.416,224.045 L104.753,225.754 L105.965,225.51 L105.621,223.806 L104.416,224.045 z M103.748,220.622 L104.081,222.335 L105.278,222.098 L104.937,220.389 L103.748,220.622 z M103.095,217.198 L103.418,218.909 L104.6,218.681 L104.271,216.976 L103.095,217.198 z M102.595,213.676 L102.788,215.466 L103.962,215.283 L103.773,213.602 L102.595,213.676 z M104.265,208.619 L104.818,207.039 L103.759,206.592 L103.153,208.303 L104.265,208.619 z M102.757,210.075 L102.578,211.871 L103.75,211.919 L103.909,210.256 L102.757,210.075 z M107.869,200.743 L106.649,202.046 L107.502,202.78 L108.659,201.534 L107.869,200.743 z M113.991,197.198 L113.399,196.333 L111.954,197.34 L112.585,198.206 L113.991,197.198 z M109.906,200.363 L111.22,199.259 L110.539,198.401 L109.172,199.53 L109.906,200.363 z M111.171,208.683 C110.454,208.956 109.664,208.89 109.008,208.499 C108.803,208.381 108.533,208.444 108.41,208.649 C108.286,208.856 108.354,209.124 108.56,209.248 C109.111,209.576 109.726,209.736 110.345,209.722 C110.729,209.714 111.114,209.641 111.484,209.499 C113.21,208.832 114.072,206.887 113.408,205.162 C113.086,204.327 112.457,203.667 111.638,203.303 C110.82,202.938 109.91,202.918 109.073,203.239 C108.847,203.326 108.735,203.578 108.822,203.804 C108.909,204.029 109.163,204.137 109.386,204.054 C110.007,203.815 110.681,203.831 111.285,204.1 C111.891,204.368 112.355,204.857 112.594,205.477 C113.084,206.752 112.446,208.192 111.171,208.683 M85.814,202.391 L86.766,201.802 L85.762,200.321 L84.866,200.98 L85.814,202.391 z M83.807,199.647 L84.644,198.923 L83.419,197.622 L82.653,198.388 L83.807,199.647 z M81.408,197.212 L82.106,196.411 L80.719,195.292 L80.085,196.116 L81.408,197.212 z M78.695,195.096 L79.27,194.256 L77.769,193.299 L77.248,194.148 L78.695,195.096 z M89.552,208.333 L89.036,206.635 L87.953,207.001 L88.441,208.63 L89.552,208.333 z M90.282,211.798 L89.963,210.057 L88.83,210.292 L89.13,211.976 L90.282,211.798 z M90.693,215.3 L90.52,213.547 L89.356,213.679 L89.518,215.395 L90.693,215.3 z M90.886,218.814 L90.811,217.057 L89.626,217.119 L89.693,218.85 L90.886,218.814 z M90.948,222.32 L90.93,220.569 L89.728,220.587 L89.74,222.324 L90.948,222.32 z M89.454,227.485 L89.294,229.211 L90.526,229.329 L90.68,227.589 L89.454,227.485 z M90.813,225.843 L90.913,224.09 L89.699,224.035 L89.593,225.756 L90.813,225.843 z M86.957,248.229 L86.725,249.956 L88.006,250.133 L88.246,248.404 L86.957,248.229 z M87.42,244.775 L87.188,246.502 L88.484,246.676 L88.713,244.945 L87.42,244.775 z M87.876,241.319 L87.65,243.047 L88.935,243.214 L89.156,241.483 L87.876,241.319 z M89.786,236.278 L89.984,234.545 L88.733,234.402 L88.528,236.13 L89.786,236.278 z M88.316,237.86 L88.099,239.59 L89.371,239.749 L89.581,238.015 L88.316,237.86 z M70.304,188.758 L68.822,187.833 L68.358,188.561 L69.832,189.507 L70.304,188.758 z M73.951,228.502 C74.848,227.47 76.416,227.359 77.45,228.257 C77.631,228.413 77.908,228.397 78.065,228.213 C78.224,228.031 78.204,227.756 78.023,227.597 C76.627,226.388 74.507,226.534 73.29,227.929 C72.079,229.327 72.227,231.45 73.623,232.662 C74.26,233.215 75.062,233.501 75.887,233.485 C76.076,233.48 76.267,233.459 76.457,233.423 C76.694,233.379 76.848,233.149 76.804,232.913 C76.758,232.675 76.523,232.516 76.292,232.567 C75.537,232.71 74.775,232.506 74.196,232.002 C73.164,231.106 73.053,229.536 73.951,228.502 M75.765,193.228 L76.273,192.397 L74.777,191.493 L74.279,192.304 L75.765,193.228 z M72.794,191.378 L73.282,190.587 L71.792,189.675 L71.312,190.446 L72.794,191.378 z M71.354,204.003 C70.074,205.335 70.117,207.464 71.452,208.745 C72.102,209.368 72.953,209.698 73.835,209.679 C73.971,209.676 74.106,209.665 74.244,209.645 C74.481,209.611 74.648,209.391 74.614,209.152 C74.58,208.911 74.347,208.746 74.12,208.781 C73.367,208.889 72.609,208.647 72.056,208.115 C71.069,207.167 71.037,205.594 71.984,204.607 C72.932,203.622 74.504,203.589 75.492,204.537 C75.666,204.704 75.942,204.697 76.109,204.524 C76.276,204.349 76.269,204.074 76.096,203.906 C74.763,202.629 72.636,202.669 71.354,204.003 M83.484,272.405 L83.221,274.133 L84.396,274.316 L84.667,272.588 L83.484,272.405 z M84.005,268.95 L83.746,270.677 L84.935,270.86 L85.203,269.132 L84.005,268.95 z M84.519,265.496 L84.263,267.223 L85.469,267.405 L85.732,265.678 L84.519,265.496 z M85.025,262.043 L84.772,263.77 L85.993,263.951 L86.253,262.224 L85.025,262.043 z M87.018,257.043 L87.269,255.316 L86.01,255.136 L85.767,256.863 L87.018,257.043 z M85.522,258.589 L85.274,260.317 L86.51,260.497 L86.765,258.771 L85.522,258.589 z M80.188,293.129 L79.901,294.85 L80.979,295.035 L81.28,293.313 L80.188,293.129 z M80.759,289.685 L80.475,291.406 L81.575,291.591 L81.867,289.869 L80.759,289.685 z M81.319,286.239 L81.041,287.962 L82.156,288.146 L82.443,286.423 L81.319,286.239 z M83.293,281.231 L83.572,279.502 L82.419,279.319 L82.147,281.048 L83.293,281.231 z M81.873,282.777 L81.598,284.508 L82.728,284.692 L83.012,282.961 L81.873,282.777 z M76.895,310.21 L76.295,311.808 L77.089,312.163 L77.742,310.491 L76.895,310.21 z M77.754,306.873 L77.372,308.554 L78.256,308.788 L78.67,307.069 L77.754,306.873 z M79.714,301.914 L80.039,300.194 L79.028,300.012 L78.727,301.731 L79.714,301.914 z M78.416,303.449 L78.095,305.163 L79.037,305.35 L79.381,303.631 L78.416,303.449 z M74.978,315.156 C75.467,314.752 75.872,314.268 76.214,313.759 L75.508,313.291 C75.206,313.753 74.856,314.176 74.45,314.522 L74.978,315.156 z M73.316,316.054 L73.076,315.289 C72.572,315.451 72.03,315.516 71.478,315.519 L71.477,316.3 C72.086,316.305 72.712,316.242 73.316,316.054 M69.681,316.128 L69.8,315.379 L68.113,315.052 L67.949,315.771 L69.681,316.128 z M66.248,315.346 L66.43,314.656 L64.775,314.178 L64.566,314.839 L66.248,315.346 z M62.906,314.281 L63.12,313.648 L61.469,313.091 L61.256,313.696 L62.906,314.281 z M55.814,179.048 L54.416,178.008 L54.032,178.509 L55.416,179.58 L55.814,179.048 z M58.189,311.944 L57.993,312.471 L59.621,313.089 L59.826,312.524 L58.189,311.944 z M56.63,295.138 C56.651,296.175 57.14,297.127 57.968,297.749 C58.05,297.81 58.145,297.839 58.24,297.838 C58.368,297.835 58.496,297.774 58.58,297.664 C58.724,297.47 58.687,297.197 58.493,297.052 C57.88,296.591 57.519,295.886 57.503,295.119 C57.475,293.753 58.563,292.616 59.932,292.588 C61.299,292.559 62.435,293.649 62.463,295.016 C62.467,295.257 62.667,295.449 62.908,295.444 C63.15,295.439 63.341,295.238 63.336,294.998 C63.297,293.148 61.763,291.676 59.914,291.715 C58.064,291.754 56.591,293.289 56.63,295.138 M58.639,181.089 L57.221,180.076 L56.816,180.63 L58.228,181.665 L58.639,181.089 z M59.806,273.799 C59.828,274.836 60.315,275.788 61.144,276.41 C61.226,276.471 61.321,276.5 61.416,276.498 C61.544,276.496 61.672,276.434 61.756,276.323 C61.9,276.131 61.862,275.858 61.669,275.713 C61.057,275.252 60.695,274.548 60.679,273.781 C60.651,272.414 61.739,271.277 63.108,271.249 C64.475,271.22 65.611,272.31 65.639,273.677 C65.644,273.918 65.843,274.11 66.084,274.105 C66.326,274.099 66.517,273.9 66.512,273.658 C66.474,271.809 64.939,270.338 63.09,270.376 C61.241,270.415 59.768,271.95 59.806,273.799 M61.507,183.073 L60.069,182.087 L59.65,182.685 L61.081,183.692 L61.507,183.073 z M66.89,187.607 L67.345,186.901 L65.874,185.959 L65.427,186.643 L66.89,187.607 z M63.97,185.672 L64.411,185.007 L62.956,184.046 L62.522,184.688 L63.97,185.672 z M62.239,250.61 C62.261,251.645 62.748,252.595 63.577,253.221 C63.658,253.282 63.754,253.31 63.849,253.308 C63.977,253.305 64.104,253.246 64.188,253.134 C64.333,252.942 64.294,252.669 64.102,252.524 C63.489,252.061 63.128,251.358 63.113,250.591 C63.084,249.225 64.173,248.088 65.54,248.06 C66.908,248.031 68.043,249.121 68.072,250.488 C68.078,250.728 68.276,250.921 68.518,250.916 C68.759,250.91 68.95,250.71 68.946,250.469 C68.907,248.621 67.371,247.147 65.522,247.186 C63.673,247.225 62.2,248.761 62.239,250.61 M54.922,310.753 L54.749,311.203 L56.371,311.842 L56.554,311.354 L54.922,310.753 z M53.03,176.953 L51.66,175.879 L51.311,176.308 L52.664,177.418 L53.03,176.953 z M35.7,302.479 L35.696,302.484 L37.167,303.43 L37.189,303.39 L35.7,302.479 z M38.753,304.167 L38.716,304.245 L40.291,305.01 L40.343,304.897 L38.753,304.167 z M41.943,305.6 L41.877,305.75 L43.469,306.47 L43.551,306.283 L41.943,305.6 z M45.163,306.952 L45.068,307.176 L46.672,307.87 L46.782,307.608 L45.163,306.952 z M48.402,308.254 L48.28,308.553 L49.896,309.23 L50.032,308.894 L48.402,308.254 z M51.662,309.523 L51.513,309.897 L53.131,310.554 L53.292,310.143 L51.662,309.523 z M164.885,202.889 L160.358,285.924 L159.689,296.285 C159.45,299.713 159.264,303.232 158.851,306.522 L158.824,306.679 C158.609,306.763 158.382,306.85 158.162,306.931 L155.745,307.785 L150.837,309.413 C147.553,310.474 144.252,311.498 140.945,312.477 C137.638,313.454 134.317,314.395 130.995,315.226 C129.334,315.636 127.667,316.027 126.034,316.313 C125.282,316.443 124.498,316.551 123.882,316.566 C123.784,316.377 123.679,316.156 123.582,315.923 C122.394,312.931 121.508,309.513 120.624,306.216 C119.99,303.806 119.395,301.38 118.806,298.95 C122.137,298.633 125.461,298.22 128.778,297.689 C130.457,297.381 132.135,297.117 133.801,296.683 C134.242,296.556 134.577,296.533 135.1,296.322 C135.588,296.098 135.919,295.682 136.112,295.268 C136.485,294.42 136.532,293.544 136.492,292.697 C136.364,293.528 136.118,294.369 135.657,295.002 C135.43,295.316 135.142,295.548 134.832,295.623 C134.552,295.687 134.03,295.691 133.642,295.728 C131.976,295.869 130.287,295.927 128.606,295.982 C126.094,296.083 123.579,296.134 121.063,296.189 L120.901,295.503 L119.963,295.729 L120.084,296.211 C119.555,296.222 119.027,296.232 118.5,296.246 L118.151,296.253 C118.144,296.224 118.137,296.196 118.131,296.168 C116.642,290.045 115.223,283.898 113.841,277.742 C114.346,277.721 114.852,277.72 115.358,277.695 C118.204,277.571 121.047,277.365 123.9,277.087 C125.32,276.93 126.748,276.777 128.191,276.484 C128.944,276.303 129.686,275.968 130.23,275.416 C130.502,275.143 130.724,274.825 130.868,274.477 C130.939,274.303 130.998,274.124 131.018,273.937 C131.034,273.778 131.057,273.498 130.851,273.459 C131.025,273.537 130.942,273.765 130.893,273.908 C130.836,274.069 130.744,274.215 130.647,274.353 C130.446,274.627 130.19,274.851 129.908,275.023 C129.356,275.381 128.706,275.534 128.06,275.556 C126.679,275.549 125.267,275.515 123.849,275.425 L116.323,275.074 L116.314,275.035 L116.167,275.067 L115.352,275.029 C114.64,274.995 113.926,274.979 113.213,274.948 C111.786,268.525 110.396,262.089 109.028,255.651 C108.974,255.396 108.921,255.141 108.867,254.885 C109.339,254.865 109.814,254.863 110.287,254.839 C110.435,254.834 110.584,254.823 110.733,254.817 L111.093,256.5 L112.307,256.243 L111.995,254.75 C114.029,254.645 116.062,254.514 118.096,254.363 L121.998,254.006 C122.402,253.949 122.822,253.806 123.135,253.51 C123.443,253.212 123.592,252.839 123.668,252.489 C123.8,251.778 123.699,251.106 123.53,250.471 C123.57,251.727 123.026,253.304 121.981,253.037 L118.067,252.65 C115.865,252.472 113.664,252.313 111.462,252.188 L111.24,251.122 L110.002,251.381 L110.158,252.111 C109.529,252.075 108.9,252.067 108.272,252.036 C106.981,245.875 105.703,239.701 104.46,233.527 C106.102,233.446 107.743,233.337 109.385,233.176 C111.192,233.008 112.997,232.756 114.801,232.401 C115.695,232.225 116.607,231.987 117.492,231.725 C117.959,231.574 118.445,231.348 118.812,230.983 C119.174,230.615 119.38,230.101 119.31,229.643 C119.028,230.568 118.11,230.783 117.327,230.772 C116.427,230.742 115.561,230.768 114.659,230.692 C112.882,230.641 111.091,230.518 109.305,230.452 C107.475,230.373 105.644,230.306 103.811,230.256 C102.795,225.152 101.799,220.054 100.862,214.976 C100.44,212 100.229,208.982 100.588,206.085 C101.75,205.948 102.913,205.772 104.077,205.517 C104.416,205.445 104.75,205.349 105.085,205.264 L105.557,205.532 L105.788,205.169 C106.257,205.218 106.818,205.377 107.373,205.575 C108.559,206.03 109.769,206.61 110.982,207.218 C110.15,206.139 109.206,205.15 108.081,204.299 C107.514,203.868 106.912,203.467 106.1,203.206 C105.873,203.157 105.67,203.089 105.407,203.072 C105.132,203.058 104.835,203.071 104.721,203.073 C104.398,203.081 104.078,203.079 103.761,203.102 C102.915,203.127 102.055,203.115 101.198,203.113 C101.958,200.682 103.324,198.508 105.304,196.792 C107.755,194.592 110.828,192.899 113.616,190.677 C116.384,188.421 118.833,185.98 121.279,183.49 C126.107,178.472 130.688,173.222 134.862,167.653 C136.106,165.978 137.305,164.265 138.439,162.512 C138.78,161.985 139.119,161.455 139.447,160.919 C140.385,161.048 141.253,160.868 142.053,160.308 C146.319,157.326 147.972,145.882 146.475,129.695 C144.32,106.391 131.082,48.599 121.851,32.773 C115.795,22.391 107.961,15.408 100.357,13.615 C98.869,13.263 97.391,13.104 95.927,13.134 C92.55,13.206 89.246,14.288 86.06,16.373 C74.302,24.069 65.348,37.614 59.446,56.633 C49.183,89.716 35.973,135.296 39.738,149.119 C40.368,151.435 40.869,153.573 41.311,155.46 C42.567,160.815 43.395,164.352 45.525,165.4 C46.134,165.7 46.9,165.803 47.831,165.719 C48.251,166.248 48.688,166.766 49.132,167.276 C50.644,169.012 52.268,170.653 53.958,172.212 C59.436,177.181 65.535,181.393 71.734,185.359 C74.828,187.337 78.031,189.199 81.015,191.208 C83.955,193.257 86.595,195.672 88.402,198.668 C89.248,200 89.902,201.442 90.447,202.934 L88.082,202.893 C85.448,202.898 82.796,202.895 80.153,202.995 L79.967,202.995 C79.17,203.148 78.619,203.454 78.069,203.759 C77.535,204.079 77.054,204.444 76.589,204.819 C76.121,205.188 75.693,205.602 75.283,206.028 C75.076,206.24 74.878,206.462 74.698,206.701 C74.607,206.819 74.519,206.94 74.438,207.069 C74.398,207.134 74.359,207.197 74.331,207.275 C74.321,207.311 74.294,207.36 74.337,207.414 C74.389,207.435 74.421,207.414 74.456,207.406 C74.241,207.4 74.497,207.261 74.572,207.196 C74.688,207.119 74.814,207.049 74.939,206.983 L75.702,206.599 C76.211,206.353 76.736,206.137 77.248,205.921 C77.762,205.71 78.287,205.533 78.793,205.388 C79.233,205.256 79.685,205.171 80.024,205.177 C82.657,205.68 85.289,205.988 87.941,206.216 C89.123,206.309 90.308,206.365 91.495,206.403 C91.668,207.12 91.833,207.839 91.972,208.563 C92.646,212.068 92.811,215.688 92.838,219.295 C92.828,222.947 92.609,226.6 92.274,230.255 C90.785,230.298 89.297,230.348 87.805,230.425 C84.211,230.61 80.614,230.899 76.998,231.507 C80.569,232.343 84.159,232.81 87.752,233.139 C89.147,233.265 90.544,233.35 91.941,233.432 C91.668,235.961 91.367,238.492 91.037,241.025 C90.558,244.593 90.041,248.158 89.499,251.722 C88.644,251.731 87.79,251.73 86.935,251.745 L86.489,251.684 L86.479,251.757 C83.98,251.806 81.482,251.879 78.984,252.003 C76.381,252.109 73.778,252.286 71.175,252.478 L69.223,252.65 L68.247,252.736 C68.025,252.746 68.148,252.764 67.982,252.734 C67.882,252.715 67.746,252.656 67.621,252.592 C66.575,252.01 65.556,251.111 64.583,250.25 C65.299,251.361 66.01,252.451 67.084,253.392 C67.228,253.509 67.373,253.624 67.574,253.725 C67.704,253.833 68.156,253.902 68.259,253.902 L69.238,253.996 L71.194,254.183 C73.802,254.393 76.409,254.591 79.017,254.716 C82.335,254.907 85.654,255 88.972,255.068 C88.572,257.632 88.173,260.196 87.756,262.759 C87.108,266.676 86.448,270.594 85.774,274.512 C84.284,274.526 82.794,274.528 81.303,274.558 C75.623,274.69 69.939,274.916 64.248,275.364 L64.217,275.365 C63.944,275.429 63.561,275.266 63.263,274.986 C62.956,274.716 62.687,274.379 62.461,274.016 C62.598,274.423 62.778,274.821 63.037,275.189 C63.287,275.54 63.663,275.944 64.266,275.96 L64.234,275.961 C69.902,276.663 75.575,277.115 81.252,277.448 C81.735,277.474 82.217,277.485 82.7,277.509 L82.688,277.589 L83.848,277.773 L83.883,277.561 C84.331,277.581 84.78,277.598 85.229,277.618 C84.107,284.051 82.939,290.473 81.692,296.87 L80.646,296.886 L80.67,296.756 L79.615,296.571 L79.559,296.903 L78.066,296.927 L73.012,296.968 C71.324,297.002 69.639,297.003 67.953,296.986 C66.261,297.021 64.583,296.975 62.895,296.964 L61.626,296.961 C61.269,296.957 60.974,296.845 60.718,296.572 C60.22,296.017 60.018,295.129 59.975,294.298 C59.86,295.131 59.825,296.035 60.299,296.886 C60.538,297.307 61.051,297.623 61.535,297.7 L62.791,297.922 C64.468,298.222 66.159,298.472 67.843,298.688 C71.218,299.119 74.604,299.436 77.993,299.641 C79.029,299.711 80.066,299.756 81.102,299.81 C80.692,301.876 80.291,303.945 79.863,306.005 C79.494,307.779 79.104,309.589 78.653,311.194 C78.098,312.928 77.558,314.631 76.818,316.072 C76.076,317.524 75.142,318.587 73.921,318.984 C72.691,319.416 71.096,319.262 69.477,318.817 C66.111,317.861 62.654,316.529 59.263,315.225 C55.859,313.901 52.472,312.52 49.101,311.1 C45.729,309.681 42.371,308.224 39.057,306.707 C37.408,305.947 35.742,305.171 34.198,304.345 C33.963,304.221 33.649,304.036 33.467,303.923 C33.463,303.908 33.457,303.9 33.455,303.883 L33.292,303.306 C33.079,302.475 32.894,301.583 32.716,300.699 C32.326,298.659 31.986,296.591 31.628,294.533 C33.112,284.454 34.71,274.388 36.371,264.337 C38.427,251.907 40.612,239.497 42.996,227.123 C45.343,214.744 47.75,202.369 50.811,190.14 C44.294,214.504 39.514,239.296 35.052,264.11 C33.544,272.637 32.12,281.179 30.785,289.737 C30.198,286.181 29.639,282.615 29.081,279.055 C26.859,264.559 24.902,250.013 23.219,235.44 C22.346,228.157 21.546,220.864 20.936,213.555 C20.631,209.901 20.376,206.242 20.223,202.579 C20.072,198.92 19.935,195.243 20.346,191.592 C19.317,198.884 19.737,206.286 20.018,213.615 C20.37,220.959 20.912,228.291 21.527,235.614 C22.861,250.252 24.53,264.855 26.434,279.432 C27.307,285.989 28.199,292.527 29.369,299.074 C27.414,312.346 25.702,325.658 24.329,339.016 L23.501,348.449 L22.917,357.908 C22.762,361.063 22.732,364.23 22.634,367.391 C22.634,370.555 22.808,373.728 22.887,376.895 C23.73,389.548 26.097,402.036 29.349,414.24 C35.937,438.635 45.311,462.226 56.969,484.576 C51.33,473.302 46.457,461.664 42.061,449.866 C37.632,438.084 33.727,426.097 30.65,413.904 C27.618,401.712 25.225,389.322 24.474,376.798 C24.41,373.667 24.25,370.539 24.263,367.405 C24.375,364.267 24.415,361.129 24.585,357.992 L25.205,348.582 L26.065,339.184 C27.211,327.365 28.662,315.576 30.299,303.808 C30.319,303.892 30.331,303.971 30.352,304.055 C30.415,304.297 30.472,304.532 30.559,304.803 C30.591,304.92 30.645,305.078 30.719,305.256 C30.763,305.352 30.747,305.373 30.908,305.636 C31.027,305.837 31.238,306.068 31.28,306.085 C31.952,306.628 32.269,306.746 32.731,307.023 C34.419,307.941 36.079,308.722 37.757,309.513 C41.106,311.076 44.474,312.565 47.858,314.019 C51.244,315.472 54.645,316.887 58.074,318.251 C61.524,319.601 64.915,320.951 68.604,322.03 C70.492,322.544 72.715,322.923 75.007,322.173 C76.136,321.802 77.176,321.111 77.973,320.293 C78.773,319.471 79.364,318.554 79.841,317.646 C80.788,315.819 81.355,314.001 81.934,312.25 C82.497,310.326 82.879,308.545 83.273,306.73 C83.73,304.475 84.152,302.218 84.584,299.963 C89.169,300.122 93.756,300.15 98.342,300.096 C104.007,299.97 109.669,299.723 115.321,299.256 C115.967,301.872 116.617,304.486 117.319,307.096 C118.265,310.477 119.121,313.79 120.51,317.235 C120.711,317.681 120.887,318.106 121.245,318.658 C121.34,318.798 121.438,318.944 121.629,319.145 C121.703,319.227 121.843,319.356 122.011,319.474 C122.142,319.59 122.646,319.788 122.66,319.769 C123.162,319.897 123.423,319.881 123.735,319.894 C124.84,319.879 125.705,319.717 126.611,319.563 C128.388,319.236 130.094,318.821 131.794,318.386 C135.187,317.51 138.528,316.535 141.86,315.523 C145.188,314.509 148.5,313.454 151.802,312.36 L156.749,310.676 L159.226,309.78 C159.651,309.617 160.042,309.473 160.537,309.25 L160.788,309.123 C160.873,309.052 160.788,309.18 161.201,308.807 C161.545,308.395 161.455,308.427 161.538,308.294 C161.675,307.948 161.679,307.847 161.718,307.688 C161.776,307.408 161.807,307.182 161.842,306.944 C162.592,299.855 162.759,293.016 163.045,286.055 C163.548,272.193 163.939,258.336 164.289,244.477 C164.514,230.613 164.829,216.756 164.885,202.889 M156.296,424.795 C156.253,422.657 155.936,420.677 155.739,418.623 C153.59,402.5 149.388,387.468 146.094,372.275 C144.365,364.698 142.864,357.122 141.811,349.478 C140.733,341.832 140.179,334.115 140.978,326.222 C137.911,333.593 137.023,341.753 136.7,349.737 C136.453,357.764 137.035,365.774 138,373.651 C139.847,389.418 143.374,404.887 145.343,419.892 C145.525,421.741 145.861,423.643 145.899,425.431 C146.007,427.247 146.146,429.083 146.016,430.753 C145.969,431.618 146.036,432.445 145.908,433.348 L145.544,436.05 C145.41,436.952 145.339,437.855 145.154,438.757 L144.589,441.471 C143.079,448.724 140.668,455.947 137.902,463.083 C135.118,470.221 131.897,477.264 128.454,484.242 C126.756,487.748 124.949,491.207 123.099,494.656 C122.2,496.4 121.227,498.097 120.266,499.811 C119.298,501.518 118.351,503.243 117.208,504.855 C120.306,502.336 122.898,499.291 125.496,496.294 C128.097,493.28 130.465,490.093 132.854,486.902 C137.523,480.448 141.734,473.638 145.406,466.474 C149.068,459.306 152.169,451.759 154.264,443.736 L155.027,440.718 C155.266,439.707 155.394,438.651 155.582,437.619 L156.096,434.504 C156.271,433.467 156.264,432.319 156.351,431.229 C156.541,428.979 156.394,426.899 156.296,424.795 M155.891,482.506 C154.225,488.242 151.814,493.691 148.81,498.782 C145.858,503.894 142.454,508.734 138.602,513.156 C134.737,517.561 130.488,521.629 125.715,524.925 C121,528.283 115.742,530.843 110.205,532.177 C104.681,533.598 98.849,533.462 93.345,532.065 C87.82,530.687 82.677,527.864 78.164,524.225 C73.654,520.563 69.701,516.161 66.242,511.385 C64.461,509.029 62.889,506.516 61.354,503.974 C59.9,501.39 58.48,498.772 57.209,496.069 C59.059,501.756 61.703,507.183 64.831,512.334 C68.021,517.442 71.815,522.254 76.417,526.303 C80.966,530.393 86.485,533.55 92.49,535.25 C98.498,536.904 104.958,537.057 111.019,535.571 C117.067,534.055 122.708,531.248 127.639,527.615 C132.567,523.967 136.951,519.666 140.697,514.899 C144.497,510.171 147.676,504.99 150.325,499.58 C152.866,494.13 154.996,488.43 155.891,482.506 M36.155,157.483 L36.741,159.126 L36.777,159.11 L36.155,157.483 z M37.468,160.707 L38.312,162.235 L38.413,162.173 L37.538,160.671 L37.468,160.707 z M39.379,163.62 L39.25,163.71 L40.265,165.134 L40.421,165.015 L39.379,163.62 z M41.52,166.359 L41.339,166.511 L42.466,167.847 L42.673,167.663 L41.52,166.359 z M43.869,168.928 L43.64,169.146 L44.851,170.41 L45.101,170.159 L43.869,168.928 z M46.365,171.356 L46.094,171.643 L47.364,172.847 L47.655,172.526 L46.365,171.356 z M48.659,174.025 L49.975,175.177 L50.306,174.785 L48.969,173.667 L48.659,174.025 z M149.644,156.749 L150.206,155.097 L149.605,156.732 L149.644,156.749 z M137.786,173.942 L138.916,172.61 L138.53,172.277 L137.373,173.579 L137.786,173.942 z M140.802,169.639 L139.674,170.965 L140.032,171.265 L141.129,169.907 L140.802,169.639 z M143.004,166.941 L141.914,168.299 L142.211,168.536 L143.273,167.148 L143.004,166.941 z M145.114,164.169 L144.073,165.566 L144.311,165.743 L145.322,164.317 L145.114,164.169 z M147.091,161.301 L146.124,162.748 L146.299,162.866 L147.235,161.392 L147.091,161.301 z M148.855,158.303 L148.009,159.82 L148.119,159.884 L148.931,158.34 L148.855,158.303 z M135.487,176.576 L136.642,175.263 L136.201,174.869 L135.017,176.148 L135.487,176.576 z M133.129,179.161 L134.315,177.875 L133.827,177.42 L132.626,178.687 L133.129,179.161 z M130.727,181.708 L131.933,180.438 L131.417,179.945 L130.197,181.194 L130.727,181.708 z M128.284,184.224 L129.511,182.97 L128.966,182.435 L127.727,183.667 L128.284,184.224 z M125.8,186.706 L127.047,185.468 L126.477,184.891 L125.219,186.108 L125.8,186.706 z M123.288,189.141 L124.549,187.929 L123.956,187.309 L122.683,188.5 L123.288,189.141 z M120.734,191.537 L122.015,190.345 L121.402,189.68 L120.109,190.848 L120.734,191.537 z M140.264,308.342 L140.375,308.768 L142.058,308.298 L141.954,307.914 L140.264,308.342 z M118.124,193.878 L119.436,192.715 L118.804,192.002 L117.486,193.137 L118.124,193.878 z M115.422,196.136 L116.79,195.022 L116.151,194.25 L114.793,195.328 L115.422,196.136 z M120.869,230.364 C120.791,231.125 120.373,231.797 119.724,232.208 C119.521,232.336 119.461,232.605 119.589,232.809 C119.674,232.943 119.821,233.015 119.968,233.012 C120.044,233.011 120.122,232.988 120.192,232.945 C121.068,232.391 121.63,231.483 121.736,230.452 C121.923,228.61 120.579,226.963 118.74,226.775 C117.851,226.687 116.976,226.946 116.281,227.51 C115.587,228.078 115.155,228.88 115.064,229.773 C115.04,230.011 115.213,230.226 115.453,230.251 C115.702,230.271 115.908,230.101 115.931,229.86 C116,229.201 116.319,228.607 116.833,228.189 C117.344,227.769 117.985,227.582 118.653,227.644 C120.012,227.782 121.006,229.002 120.869,230.364 M126.243,250.721 C126.08,250.898 126.09,251.174 126.268,251.338 C126.356,251.416 126.464,251.455 126.573,251.453 C126.688,251.45 126.801,251.402 126.885,251.312 C127.588,250.548 127.895,249.524 127.728,248.503 C127.586,247.618 127.108,246.841 126.381,246.318 C125.655,245.793 124.769,245.586 123.883,245.727 C122.999,245.87 122.223,246.348 121.7,247.075 C121.175,247.802 120.966,248.689 121.108,249.575 C121.146,249.813 121.374,249.955 121.609,249.935 C121.847,249.897 122.008,249.672 121.97,249.434 C121.865,248.779 122.02,248.125 122.408,247.587 C122.795,247.049 123.369,246.695 124.023,246.588 C124.673,246.489 125.333,246.638 125.871,247.027 C126.409,247.414 126.762,247.988 126.867,248.643 C126.992,249.397 126.763,250.155 126.243,250.721 M132.821,273.091 C132.657,273.269 132.667,273.544 132.845,273.708 C132.932,273.786 133.042,273.825 133.15,273.822 C133.265,273.82 133.378,273.773 133.461,273.68 C134.165,272.92 134.472,271.895 134.307,270.872 C134.164,269.987 133.685,269.211 132.958,268.687 C132.232,268.164 131.344,267.959 130.461,268.096 C129.576,268.24 128.801,268.718 128.276,269.445 C127.752,270.173 127.543,271.059 127.687,271.944 C127.725,272.183 127.949,272.33 128.187,272.306 C128.424,272.267 128.586,272.041 128.548,271.804 C128.442,271.15 128.597,270.493 128.984,269.957 C129.373,269.419 129.946,269.065 130.601,268.959 C131.25,268.861 131.91,269.008 132.448,269.396 C132.985,269.784 133.339,270.358 133.446,271.012 C133.568,271.769 133.339,272.526 132.821,273.091 M138.571,308.75 L136.875,309.135 L136.994,309.647 L138.687,309.218 L138.571,308.75 z M139.794,293.506 C139.631,293.683 139.643,293.96 139.821,294.123 C139.907,294.201 140.016,294.24 140.125,294.238 C140.241,294.236 140.354,294.189 140.437,294.097 C141.139,293.333 141.448,292.309 141.282,291.287 C141.139,290.403 140.661,289.627 139.933,289.104 C139.206,288.577 138.322,288.373 137.435,288.512 C136.551,288.655 135.776,289.134 135.252,289.861 C134.728,290.588 134.517,291.474 134.661,292.36 C134.699,292.598 134.922,292.742 135.161,292.721 C135.4,292.683 135.561,292.457 135.523,292.219 C135.417,291.565 135.573,290.91 135.96,290.371 C136.347,289.835 136.921,289.48 137.576,289.374 C138.227,289.277 138.886,289.424 139.422,289.811 C139.96,290.199 140.315,290.773 140.421,291.428 C140.543,292.183 140.316,292.941 139.794,293.506 M145.328,306.998 L143.643,307.466 L143.74,307.806 L145.417,307.297 L145.328,306.998 z M148.673,306.006 L147.003,306.512 L147.083,306.769 L148.744,306.221 L148.673,306.006 z M151.992,304.921 L150.336,305.477 L150.396,305.651 L152.039,305.053 L151.992,304.921 z M155.258,303.68 L153.634,304.328 L153.67,304.42 L155.281,303.732 L155.258,303.68 z M156.838,302.926 L156.845,302.938 L157.366,302.593 L156.838,302.926 z M154.504,165.838 C147.812,175.616 139.353,183.594 130.884,191.78 C128.763,193.84 126.63,195.91 124.632,198.252 C123.63,199.426 122.645,200.648 121.767,202.108 C121.334,202.845 120.914,203.624 120.607,204.576 C120.443,205.03 120.333,205.573 120.254,206.11 L120.202,206.977 C120.204,207.234 120.238,207.412 120.256,207.634 C120.394,209.418 120.722,210.84 121.004,212.329 C121.292,213.817 121.639,215.242 121.953,216.702 C122.617,219.594 123.294,222.473 124.011,225.336 C125.496,231.053 127.047,236.739 128.654,242.412 C130.338,248.062 131.96,253.728 133.799,259.331 C135.583,264.95 137.47,270.536 139.456,276.095 C141.539,281.612 143.436,287.233 146.184,292.494 C144.531,286.838 143.312,281.077 141.919,275.358 L137.732,258.216 L129.084,224.048 C128.334,221.214 127.625,218.373 126.932,215.54 C126.608,214.128 126.241,212.698 125.951,211.3 C125.658,209.903 125.347,208.45 125.19,207.303 C124.781,205.8 126.488,203.312 128.167,201.16 C129.919,198.967 131.872,196.79 133.819,194.602 C141.694,185.946 149.708,176.719 154.504,165.838 M132.698,34.741 C135.97,39.859 139.378,44.814 142.357,49.964 C145.316,55.122 147.882,60.457 149.839,66.018 C151.853,71.557 153.285,77.306 154.308,83.163 C155.283,89.034 155.813,94.992 156.351,101.047 C157.266,95.05 157.5,88.925 157.009,82.819 C156.515,76.71 155.172,70.651 153.122,64.838 C151.012,59.047 148.173,53.516 144.648,48.507 C141.139,43.483 137.081,38.935 132.698,34.741 M180.314,369.933 C181.628,432.777 168.54,474.965 158.577,499.624 C148.614,524.282 99.084,577.712 64.749,522.543 C30.413,467.376 9.421,382.24 1.744,349.218 C-5.933,316.197 13.787,242.779 21.041,186.397 C25.549,151.374 27.653,84.965 37.688,63.798 C47.724,42.631 76.597,3.606 97.581,4.914 C118.566,6.221 150.755,42.223 158.03,56.041 C165.305,69.861 170.11,132.632 167.386,169.364 C164.663,206.097 178.999,307.089 180.314,369.933 M105.051,251.907 L101.866,235.889 C101.718,235.128 101.574,234.369 101.428,233.61 C100.47,233.629 99.511,233.67 98.555,233.662 C97.336,233.656 96.12,233.606 94.902,233.565 C94.653,236.192 94.366,238.812 94.033,241.416 C93.596,244.848 93.123,248.272 92.63,251.692 C93.29,251.688 93.95,251.675 94.608,251.673 C98.089,251.707 101.57,251.787 105.051,251.907 M109.794,274.822 C108.475,268.651 107.188,262.475 105.925,256.295 L105.665,254.99 C101.997,255.097 98.327,255.155 94.656,255.164 C93.811,255.154 92.967,255.132 92.123,255.12 C91.721,257.835 91.317,260.548 90.896,263.26 C90.303,267.002 89.703,270.741 89.09,274.478 C92.172,274.469 95.255,274.482 98.336,274.523 C102.157,274.589 105.976,274.692 109.794,274.822 M95.206,230.201 C95.474,226.57 95.611,222.922 95.528,219.258 C95.419,215.535 95.168,211.789 94.376,208.09 C94.257,207.536 94.108,206.982 93.97,206.426 C94.64,206.426 95.308,206.445 95.979,206.425 C96.679,206.401 97.381,206.365 98.082,206.319 C97.709,209.36 97.878,212.388 98.226,215.34 C98.964,220.37 99.849,225.29 100.778,230.206 C100.043,230.196 99.307,230.173 98.57,230.171 C97.449,230.165 96.327,230.188 95.206,230.201" fill="#0A0B09"/>
  </g>
</svg>
